**ABCDEFGHIJKLMNOPQRSTUVWXYZabcdefghijklmnopqrstuvwxyz**************************
**PARASOLID !"#$%&'()*+,-./:;<=>?@[\]^_`{|}~0123456789**************************
**PART1;
MC=AMD64;
MC_MODEL=Intel64 Family 6 Model 58 Stepping 9, GenuineIntel;
MC_ID=unknown;
OS=Windows_NT;
OS_RELEASE=unknown;
FRU=Parasolid Version 27.0, build 207,  1-23-2015;
APPL=SOLIDWORKS 2015-2015109;
SITE=;
USER=unknown;
FORMAT=text;
GUISE=transmit;
KEY=crank;
FILE=crank.x_t;
DATE=Thu Mar 08 09:23:47 2018;
**PART2;
SCH=SCH_2700207_26105;
USFLD_SIZE=0;
**PART3;
**END_OF_HEADER*****************************************************************
T51 : TRANSMIT FILE created by modeller version 270020723 SCH_2700207_26105_1300
6196 0 12 30 CCCCCCCCCCCCCDI5 owner1040 0 CCCCCCCCCA13 boundary_mesh1006 0 A16 i
ndex_map_offset0 0 1 dA9 index_map82 0 A17 node_id_index_map82 0 A20 schema_embe
dding_map82 0 A5 child12 0 A14 lowest_node_id0 0 1 dZ1 681 0 2 0 0 0 0 1e3 1e-8
 0 3 0 1 0 1 1 4 5 6 7 8 9 10 0 0 0 0 0 0 0 70 11 CI9 list_type0 0 1 uI10 notran
smit0 0 1 lCCCDCCDI12 finger_index0 0 1 dI12 finger_block1012 0 CZ2 0 4 T1 0 0 2
 20 1 11 11 13 255 4 94 0 1 0 12 0 0 13 0 51 255 5 603 0 14 15 0 0 +-.0329988346
260257 .00066885516843757 .002 0 0 -1 .001 -1 0 0 30 255 6 558 0 9 16 0 0 --.033
12070396943085 .001661401320078895 -.008 0 0 -1 29 255 7 545 0 10 17 0 -.0331207
0396943085 .001661401320078895 .002 19 8 CCCCCCCA5 owner12 0 Z8 28 0 1 13 0 18 V
0 16 255 9 556 0 ?19 0 20 6 0 0 1 18 255 10 543 0 19 0 21 7 ?1 17 255 19 0 22 23
 24 10 25 9 0 26 +18 21 530 0 27 10 28 17 ?1 17 27 0 29 30 31 21 32 33 0 34 +18
 28 527 0 35 21 36 37 ?1 29 17 532 0 21 37 7 -.0339736641133182 -.00089180689125
0093 .002 29 37 529 0 28 38 17 -.0339736641133182 .000891806891250093 .002 29 38
 516 0 36 39 37 -.03312070396943085 .001661401320078895 0 18 36 514 0 40 28 41 3
8 ?1 29 39 513 0 41 42 38 -.0339736641133182 -.000891806891250093 0 18 41 511 0
 43 36 44 39 ?1 29 42 510 0 44 45 39 -.0339736641133182 .000891806891250093 0 18
 44 508 0 46 41 47 42 ?1 29 45 502 0 47 48 42 -.03312070396943085 -.001661401320
078895 .002 18 47 500 0 49 44 50 45 ?1 29 48 499 0 50 51 45 -.03312070396943085
 -.001661401320078895 0 18 50 497 0 52 47 53 48 ?1 29 51 72 0 54 55 48 -.0140743
4616414822 -.004 0 18 54 63 0 56 53 57 51 ?1 29 55 24 0 53 58 51 -.0140743461641
4822 .004 .002 18 53 22 0 23 50 54 55 ?1 29 58 336 0 57 59 55 -.0140743461641482
2 .004 0 18 57 276 0 60 54 61 58 ?1 29 59 479 0 61 0 58 -.01407434616414822 -.00
4 .002 18 61 412 0 62 57 0 59 ?1 17 62 0 63 64 49 61 65 66 0 67 +15 255 63 235 0
 34 12 0 17 64 0 63 26 62 53 68 69 0 70 +17 49 0 63 62 34 47 71 20 0 65 +17 65 0
 72 73 67 47 62 66 0 74 -16 66 501 0 ?62 75 0 76 0 0 1 17 67 0 72 65 56 61 77 78
 0 68 -15 72 429 0 65 79 0 17 56 0 72 67 73 54 80 75 0 77 +17 77 0 81 82 68 54 6
7 78 0 83 +16 78 76 0 ?77 84 85 86 0 0 1 17 68 0 81 77 70 61 64 69 0 0 -15 81 80
 0 82 87 0 17 70 0 81 68 82 53 88 85 0 0 -16 69 10 0 ?64 85 89 90 0 0 1 16 85 75
 0 ?88 78 69 91 0 0 1 16 89 528 0 ?34 69 92 93 0 0 1 31 255 90 11 0 69 93 94 0 +
-.01407434616414822 0 .002 0 0 1 1 0 0 .004 31 93 5 0 89 95 90 0 +-.030074346164
14825 0 .002 0 0 1 1 0 0 .004 31 94 69 0 96 90 97 0 +-.03007434616414825 0 0 0 0
 1 1 0 0 .004 16 96 509 0 ?31 92 98 94 0 0 1 31 97 67 0 92 94 91 0 +-.0140743461
6414822 0 0 0 0 1 1 0 0 .004 16 92 49 0 ?82 89 96 97 0 0 1 30 91 87 0 85 97 86 0
 +-.01407434616414822 .004 .002 0 0 -1 30 86 88 0 78 91 99 0 +-.0140743461641482
2 -.004 .002 0 0 -1 30 99 505 0 84 86 100 0 --.03312070396943085 -.0016614013200
78895 0 0 0 1 16 84 503 0 ?73 101 78 99 0 0 1 31 100 519 0 101 99 102 0 --.03299
88346260257 .00066885516843757 0 0 0 1 1 0 0 .001 16 101 517 0 ?40 103 84 100 0
 0 1 31 102 524 0 103 100 104 0 --.0329988346260257 -.00066885516843757 0 0 0 1
 1 0 0 .001 16 103 522 0 ?43 105 101 102 0 0 1 30 104 535 0 105 102 106 0 +-.033
9736641133182 .000891806891250093 .002 0 0 -1 16 105 533 0 ?107 33 103 104 0 0 1
 30 106 540 0 33 104 108 0 --.0339736641133182 -.000891806891250093 .002 0 0 -1
 16 33 538 0 ?27 109 105 106 0 0 1 31 108 548 0 109 106 16 0 +-.0329988346260257
 .00066885516843757 .002 0 0 1 1 0 0 .001 16 109 546 0 ?35 20 33 108 0 0 1 31 16
 553 0 20 108 6 0 +-.0329988346260257 -.00066885516843757 .002 0 0 1 1 0 0 .001
 16 20 551 0 ?49 9 109 16 0 0 1 17 35 0 63 34 26 28 110 109 0 30 +17 34 0 63 49
 35 21 30 89 0 71 +17 26 0 63 35 64 10 23 111 0 110 -17 110 0 112 25 113 10 35 1
09 0 0 -17 30 0 29 107 27 28 34 89 0 113 -15 29 365 0 31 114 0 17 107 0 29 31 30
 44 113 105 0 115 +17 113 0 112 110 46 28 107 105 0 0 -15 112 592 0 110 14 0 17
 46 0 112 113 25 44 40 101 0 107 -17 25 0 112 46 110 36 19 9 0 0 -17 40 0 116 60
 115 36 46 101 0 24 +15 116 369 0 80 117 0 17 60 0 116 83 40 57 24 118 0 88 +17
 115 0 116 40 43 44 31 96 0 0 -17 24 0 22 19 88 36 60 118 0 25 -15 22 291 0 24 1
19 0 17 88 0 22 24 23 57 70 85 0 82 +16 118 515 0 ?60 120 111 121 0 0 1 16 120 1
58 0 ?122 123 118 124 0 0 1 16 111 544 0 ?23 118 75 125 0 0 1 30 121 322 0 118 1
25 126 0 +-.03032055576555555 .00200521628775476 0 .992546151641323 .12186934340
5141 0 30 125 328 0 111 127 121 0 +-.01407434616414822 .004 .002 .99254615164132
3 .121869343405141 0 31 126 181 0 123 121 124 0 +-.01407434616414822 0 .002 0 0
 1 1 0 0 .0029 16 123 161 0 ?128 129 120 126 0 0 1 31 124 180 0 120 126 130 0 +-
.01407434616414822 0 0 0 0 1 1 0 0 .0029 31 130 143 0 98 124 95 0 +-.03007434616
414825 0 .002 0 0 1 1 0 0 .001 16 98 123 0 ?131 96 129 130 0 0 1 31 95 142 0 129
 130 93 0 +-.03007434616414825 0 0 0 0 1 1 0 0 .001 16 129 120 0 ?132 98 123 95
 0 0 1 17 132 0 133 132 132 0 134 129 0 0 +15 133 109 0 132 117 116 17 134 0 135
 134 134 0 132 129 0 0 -15 135 130 0 134 136 0 14 255 136 126 137 ?138 87 139 4
 140 +0 0 138 87 18 81 255 1 137 672 141 136 142 0 0 143 144 14 138 164 143 ?119
 136 145 4 146 +0 0 119 136 18 14 87 81 147 ?136 114 81 4 148 -0 0 136 114 18 15
 139 129 0 131 136 135 51 140 139 0 136 146 149 0 --.03007434616414825 0 .002 0
 0 -1 .001 -1 0 0 13 18 29 0 0 0 0 0 0 8 12 14 12 375 150 ?117 0 151 4 149 +0 0
 117 0 18 81 1 150 675 141 12 152 0 147 153 154 14 117 370 153 ?114 12 155 4 156
 -0 0 114 12 18 15 151 114 0 157 12 158 50 255 149 2 0 12 140 156 0 +-.030074346
16414825 0 .002 0 0 1 1 0 0 50 156 65 0 117 149 148 0 +-.03007434616414825 0 0 0
 0 1 1 0 0 51 148 91 0 87 156 159 0 --.01407434616414822 0 .002 0 0 -1 .004 -1 0
 0 51 159 93 0 114 148 15 0 --.03007434616414825 0 .002 0 0 -1 .004 -1 0 0 14 11
4 366 160 ?87 117 29 4 159 -0 0 87 117 18 51 15 582 0 161 159 5 0 +-.03299883462
60257 -.00066885516843757 .002 0 0 -1 .001 -1 0 0 14 161 570 162 ?14 79 163 4 15
 +0 0 14 79 18 81 1 162 678 141 161 164 0 160 165 166 14 14 591 165 ?0 161 112 4
 5 +0 0 0 161 18 14 79 426 167 ?161 119 72 4 168 +0 0 161 119 18 15 163 571 0 71
 161 0 17 71 0 163 32 74 21 49 20 0 0 -17 32 0 163 52 71 41 27 33 0 0 -17 74 0 1
63 71 52 47 73 84 0 0 -17 52 0 163 74 32 50 43 103 0 73 -17 73 0 72 56 65 50 74
 84 0 80 +17 80 0 116 43 83 50 56 75 0 0 -17 43 0 116 115 80 41 52 103 0 31 +17
 83 0 116 80 60 54 82 92 0 0 -16 75 498 0 ?56 111 66 127 0 0 1 30 127 460 0 75 7
6 125 0 +-.03032055576555555 -.00200521628775476 0 .992546151641323 -.1218693434
05141 0 30 76 467 0 66 0 127 0 +-.01407434616414822 -.004 .002 .992546151641323
 -.121869343405141 0 17 82 0 81 70 77 57 83 92 0 0 +17 31 0 29 27 107 41 115 96
 0 32 +81 1 167 680 141 79 169 0 165 170 171 14 119 288 170 ?79 138 22 4 172 -0
 0 79 138 18 50 168 454 0 79 0 172 0 +-.01407434616414822 -.004 -.008 -.12186934
3405141 -.992546151641323 0 .992546151641323 -.121869343405141 0 50 172 317 0 11
9 168 146 0 +-.01407434616414822 .004 -.008 .121869343405141 -.992546151641323 0
 .992546151641323 .121869343405141 0 51 146 177 0 138 172 140 0 --.0140743461641
4822 0 .002 0 0 -1 .0029 -1 0 0 81 1 170 681 141 119 173 0 167 0 174 80 255 1 14
1 175 176 9000 1 1 1 1 1 1 1 1 0 FFFFTFTFFFFFFF1 81 1 173 646 177 119 0 170 178
 169 179 82 255 1 174 -1681653451 80 1 177 0 180 8001 0 0 0 0 3 5 0 0 0 FFFFTFTF
FFFFFF2 81 1 178 645 177 138 0 143 142 173 181 81 1 169 647 177 79 0 167 173 164
 182 83 255 3 179 .752941176470588 .752941176470588 .752941176470588 81 1 164 64
8 177 161 0 162 169 183 184 83 3 182 .752941176470588 .752941176470588 .75294117
6470588 81 1 183 649 177 14 0 165 164 0 185 83 3 184 .752941176470588 .752941176
470588 .752941176470588 81 1 165 679 141 14 183 0 162 167 186 83 3 185 .75294117
6470588 .752941176470588 .752941176470588 82 1 186 -98565835 81 1 143 673 141 13
8 178 0 137 147 187 81 1 142 644 177 136 0 137 188 178 189 83 3 181 .75294117647
0588 .752941176470588 .752941176470588 81 1 188 643 177 87 0 147 190 142 191 83
 3 189 .752941176470588 .752941176470588 .752941176470588 81 1 147 674 141 87 18
8 0 143 150 192 81 1 190 642 177 114 0 160 193 188 194 83 3 191 .752941176470588
 .752941176470588 .752941176470588 81 1 160 677 141 114 190 0 153 162 195 81 1 1
93 641 177 117 0 153 152 190 196 83 3 194 .752941176470588 .752941176470588 .752
941176470588 81 1 153 676 141 117 193 0 150 160 197 81 1 152 640 177 12 0 150 0
 193 198 83 3 196 .752941176470588 .752941176470588 .752941176470588 83 3 198 .7
52941176470588 .752941176470588 .752941176470588 82 1 197 -1192623819 82 1 195 -
1193017035 82 1 192 38011187 82 1 187 47448366 79 255 15 180 SDL/TYSA_COLOUR79 1
4 176 SWEntUnchanged82 1 171 -1195048651 82 1 166 -100531915 17 157 0 151 157 15
7 0 131 98 0 0 -15 158 152 0 199 12 63 17 199 0 158 199 199 0 128 123 0 0 -17 12
8 0 145 128 128 0 199 123 0 0 +15 145 167 0 128 138 200 15 200 168 0 201 138 0 1
7 201 0 200 201 201 0 122 120 0 0 -17 122 0 155 122 122 0 201 120 0 0 +15 155 14
7 0 122 117 133 17 131 0 139 131 131 0 157 98 0 0 +82 1 154 -1192165067 82 1 144
 43385134 17 23 0 22 88 19 53 26 111 0 64 +19 13 95 0 1 0 8 4 S0 74 4 CI16 index
_map_offset0 0 1 dCCZ20 11 2 0 0 170 183 0 0 0 0 0 0 0 0 0 0 0 0 0 0 0 0 0 0 1 0
 
