**ABCDEFGHIJKLMNOPQRSTUVWXYZabcdefghijklmnopqrstuvwxyz**************************
**PARASOLID !"#$%&'()*+,-./:;<=>?@[\]^_`{|}~0123456789**************************
**PART1;
MC=AMD64;
MC_MODEL=Intel64 Family 6 Model 58 Stepping 9, GenuineIntel;
MC_ID=unknown;
OS=Windows_NT;
OS_RELEASE=unknown;
FRU=Parasolid Version 27.0, build 207,  1-23-2015;
APPL=SOLIDWORKS 2015-2015109;
SITE=;
USER=unknown;
FORMAT=text;
GUISE=transmit;
KEY=link;
FILE=link.x_t;
DATE=Thu Mar 08 09:24:13 2018;
**PART2;
SCH=SCH_2700207_26105;
USFLD_SIZE=0;
**PART3;
**END_OF_HEADER*****************************************************************
T51 : TRANSMIT FILE created by modeller version 270020723 SCH_2700207_26105_1300
6196 0 12 30 CCCCCCCCCCCCCDI5 owner1040 0 CCCCCCCCCA13 boundary_mesh1006 0 A16 i
ndex_map_offset0 0 1 dA9 index_map82 0 A17 node_id_index_map82 0 A20 schema_embe
dding_map82 0 A5 child12 0 A14 lowest_node_id0 0 1 dZ1 260 0 2 0 0 0 0 1e3 1e-8
 0 3 0 1 0 1 1 4 5 6 7 8 9 10 0 0 0 0 0 0 0 70 11 CI9 list_type0 0 1 uI10 notran
smit0 0 1 lCCCDCCDI12 finger_index0 0 1 dI12 finger_block1012 0 CZ2 0 4 T1 0 0 2
 20 1 11 11 13 255 4 94 0 1 0 12 0 0 13 0 51 255 5 93 0 14 15 0 0 --.01050268600
501684 0 .001 0 0 -1 .002 -1 0 0 30 255 6 89 0 9 16 0 0 +-.01050268600501684 -.0
02 .001 0 0 -1 29 255 7 70 0 17 18 0 -.01050268600501684 .002 0 19 8 CCCCCCCA5 o
wner12 0 Z8 28 0 1 13 0 19 V0 16 255 9 77 0 ?20 0 21 6 0 0 1 18 255 10 25 0 22 0
 23 24 ?1 17 255 22 0 25 26 27 10 28 29 0 30 +18 23 22 0 27 10 31 32 ?1 29 24 27
 0 10 32 33 -.01050268600501684 .002 .001 29 32 24 0 23 34 24 .1294973139949832
 .002 .001 29 33 73 0 35 24 36 -.01050268600501684 -.002 0 18 35 64 0 37 38 0 33
 ?1 29 36 72 0 38 33 18 .1294973139949832 -.002 0 18 38 63 0 39 40 35 36 ?1 29 1
8 71 0 40 36 7 .1294973139949832 .002 0 18 40 62 0 41 17 38 18 ?1 17 41 0 42 43
 44 40 45 46 0 47 +18 17 61 0 48 49 40 7 ?1 17 48 0 50 30 47 17 51 52 0 53 +18 4
9 16 0 54 31 17 55 ?1 17 54 0 56 20 57 49 58 59 0 26 -18 31 19 0 58 23 49 34 ?1
 29 55 18 0 49 0 34 -.01050268600501684 -.002 .001 29 34 21 0 31 55 32 .12949731
39949832 -.002 .001 17 58 0 25 27 26 31 54 59 0 57 +15 255 25 3 0 26 12 60 17 27
 0 25 22 58 23 61 62 0 43 +17 26 0 25 58 22 49 63 64 0 65 +16 59 7 0 ?58 62 64 6
6 0 0 1 17 57 0 56 54 39 31 44 21 0 61 -15 56 82 0 39 67 0 17 39 0 56 57 20 38 3
7 68 0 44 +17 44 0 42 41 61 38 57 21 0 45 +16 21 76 0 ?44 9 69 16 0 0 1 17 61 0
 42 44 43 31 27 62 0 0 -15 42 80 0 41 70 0 17 43 0 42 61 41 23 47 69 0 28 -16 62
 10 0 ?27 29 59 71 0 0 1 16 29 13 0 ?22 72 62 73 0 0 1 31 255 71 11 0 62 66 73 0
 +.1294973139949832 0 .001 0 0 1 1 0 0 .002 30 66 8 0 59 74 71 0 +-.010502686005
01684 -.002 .001 1 0 0 30 73 14 0 29 71 75 0 +-.01050268600501684 .002 .001 -1 0
 0 31 75 69 0 76 73 77 0 +-.01050268600501684 0 0 0 0 1 1 0 0 .002 16 76 57 0 ?7
8 68 79 75 0 0 1 30 77 68 0 68 75 80 0 +-.01050268600501684 -.002 0 1 0 0 16 68
 53 0 ?39 46 76 77 0 0 1 31 80 67 0 46 77 81 0 +.1294973139949832 0 0 0 0 1 1 0
 0 .002 16 46 49 0 ?41 52 68 80 0 0 1 30 81 66 0 52 80 82 0 +-.01050268600501684
 .002 0 -1 0 0 16 52 45 0 ?48 64 46 81 0 0 1 30 82 86 0 72 81 83 0 +-.0105026860
0501684 .002 .001 0 0 -1 16 72 74 0 ?53 69 29 82 0 0 1 30 83 87 0 69 82 16 0 +.1
294973139949832 .002 .001 0 0 -1 16 69 75 0 ?47 21 72 83 0 0 1 30 16 88 0 21 83
 6 0 +.1294973139949832 -.002 .001 0 0 -1 17 47 0 50 48 28 40 43 69 0 51 +15 50
 78 0 48 84 0 17 28 0 50 47 30 23 22 29 0 0 -17 51 0 85 45 86 40 48 52 0 0 -15 8
5 44 0 86 87 88 17 45 0 85 37 51 38 41 46 0 0 -17 86 0 85 51 37 17 78 76 0 0 -17
 37 0 85 86 45 35 39 68 0 20 -17 78 0 89 65 53 35 86 76 0 0 +15 89 84 0 78 14 0
 17 65 0 89 63 78 49 20 9 0 0 -17 53 0 89 78 63 17 30 72 0 86 +17 63 0 89 53 65
 10 26 64 0 0 -17 30 0 50 28 48 10 53 72 0 63 -16 64 4 0 ?26 59 52 74 0 0 1 31 7
4 5 0 64 90 66 0 +-.01050268600501684 0 .001 0 0 1 1 0 0 .002 31 90 142 0 91 92
 74 0 +-.01050268600501684 0 0 0 0 1 1 0 0 .001 16 91 120 0 ?93 79 94 90 0 0 1 3
1 92 143 0 79 95 90 0 +-.01050268600501684 0 .001 0 0 1 1 0 0 .001 16 79 123 0 ?
96 76 91 92 0 0 1 31 95 180 0 97 98 92 0 +.1294973139949832 0 0 0 0 1 1 0 0 .000
999999999999969 16 97 158 0 ?99 94 0 95 0 0 1 31 98 181 0 94 0 95 0 +.1294973139
949832 0 .001 0 0 1 1 0 0 .000999999999999969 16 94 161 0 ?100 91 97 98 0 0 1 17
 100 0 101 100 100 0 102 94 0 0 +15 101 167 0 100 103 104 17 102 0 60 102 102 0
 100 94 0 0 -15 60 152 0 102 12 0 14 255 12 155 105 ?87 0 106 4 107 +0 0 87 0 19
 81 255 1 105 253 108 12 109 0 0 110 111 14 87 149 110 ?14 12 85 4 112 -0 0 14 1
2 19 15 106 114 0 113 12 25 50 255 107 2 0 12 114 112 0 +-.01050268600501684 0 .
001 0 0 1 1 0 0 13 19 29 0 0 0 0 0 0 8 12 51 114 139 0 115 116 107 0 --.01050268
600501684 0 .001 0 0 -1 .001 -1 0 0 50 112 65 0 87 107 117 0 +-.0105026860050168
4 0 0 0 0 1 1 0 0 50 117 90 0 84 112 118 0 +-.01050268600501684 .002 .001 0 -1 0
 0 0 -1 14 84 79 119 ?115 70 50 4 117 -0 0 115 70 19 51 118 91 0 70 117 15 0 -.1
294973139949832 0 .001 0 0 -1 .002 -1 0 0 14 70 81 120 ?84 67 42 4 118 -0 0 84 6
7 19 50 15 92 0 67 118 5 0 +-.01050268600501684 -.002 .001 0 1 0 0 0 1 14 67 83
 121 ?70 14 56 4 15 -0 0 70 14 19 81 1 121 257 108 67 122 0 120 123 124 14 14 85
 123 ?67 87 89 4 5 -0 0 67 87 19 81 1 123 258 108 14 125 0 121 126 127 80 255 1
 108 128 129 9000 1 1 1 1 1 1 1 1 0 FFFFTFTFFFFFFF1 81 1 125 229 130 14 0 123 13
1 122 132 81 1 126 259 108 115 133 0 123 134 135 82 255 1 127 1594556711 14 115
 126 126 ?103 84 136 4 114 +0 0 103 84 19 81 1 133 233 130 115 0 126 137 138 139
 81 1 134 260 108 103 138 0 126 0 140 82 1 135 1599406375 14 103 164 134 ?0 115
 101 4 116 +0 0 0 115 19 81 1 138 234 130 103 0 134 133 0 141 82 1 140 160346960
7 80 1 130 0 142 8001 0 0 0 0 3 5 0 0 0 FFFFTFTFFFFFFF2 83 255 3 141 .7529411764
70588 .752941176470588 .752941176470588 79 255 15 142 SDL/TYSA_COLOUR51 116 177
 0 103 0 114 0 -.1294973139949832 0 .001 0 0 -1 .000999999999999969 -1 0 0 81 1
 137 232 130 84 0 119 143 133 144 83 3 139 .752941176470588 .752941176470588 .75
2941176470588 81 1 119 255 108 84 137 0 110 120 145 81 1 143 231 130 70 0 120 12
2 137 146 83 3 144 .752941176470588 .752941176470588 .752941176470588 81 1 120 2
56 108 70 143 0 119 121 147 81 1 122 230 130 67 0 121 125 143 148 83 3 146 .7529
41176470588 .752941176470588 .752941176470588 83 3 148 .752941176470588 .7529411
76470588 .752941176470588 82 1 147 1594032423 81 1 110 254 108 87 131 0 105 119
 149 82 1 145 1593770279 81 1 131 228 130 87 0 110 109 125 150 82 1 149 16064842
63 81 1 109 227 130 12 0 105 0 131 151 83 3 150 .752941176470588 .75294117647058
8 .752941176470588 83 3 151 .752941176470588 .752941176470588 .752941176470588 1
5 136 129 0 96 115 152 17 96 0 136 96 96 0 113 79 0 0 +15 152 130 0 153 115 0 17
 153 0 152 153 153 0 93 91 0 0 -17 93 0 88 93 93 0 153 91 0 0 +15 88 109 0 93 87
 154 15 154 147 0 99 87 0 17 99 0 154 99 99 0 155 97 0 0 +17 155 0 104 155 155 0
 99 97 0 0 -15 104 168 0 155 103 0 17 113 0 106 113 113 0 96 79 0 0 -83 3 132 .7
52941176470588 .752941176470588 .752941176470588 79 14 129 SWEntUnchanged82 1 12
4 1594294567 82 1 111 1607008551 17 20 0 56 39 54 35 65 9 0 78 +19 13 95 0 1 0 8
 4 S0 74 4 CI16 index_map_offset0 0 1 dCCZ20 11 2 0 0 134 138 0 0 0 0 0 0 0 0 0
 0 0 0 0 0 0 0 0 0 1 0 
