**ABCDEFGHIJKLMNOPQRSTUVWXYZabcdefghijklmnopqrstuvwxyz**************************
**PARASOLID !"#$%&'()*+,-./:;<=>?@[\]^_`{|}~0123456789**************************
**PART1;
MC=AMD64;
MC_MODEL=Intel64 Family 6 Model 58 Stepping 9, GenuineIntel;
MC_ID=unknown;
OS=Windows_NT;
OS_RELEASE=unknown;
FRU=Parasolid Version 27.0, build 207,  1-23-2015;
APPL=SOLIDWORKS 2015-2015109;
SITE=;
USER=unknown;
FORMAT=text;
GUISE=transmit;
KEY=luoxuanjiang;
FILE=luoxuanjiang.x_t;
DATE=Thu Mar 08 09:23:07 2018;
**PART2;
SCH=SCH_2700207_26105;
USFLD_SIZE=0;
**PART3;
**END_OF_HEADER*****************************************************************
T51 : TRANSMIT FILE created by modeller version 270020723 SCH_2700207_26105_1300
6196 0 12 30 CCCCCCCCCCCCCDI5 owner1040 0 CCCCCCCCCA13 boundary_mesh1006 0 A16 i
ndex_map_offset0 0 1 dA9 index_map82 0 A17 node_id_index_map82 0 A20 schema_embe
dding_map82 0 A5 child12 0 A14 lowest_node_id0 0 1 dZ1 1400 0 2 0 0 0 0 1e3 1e-8
 0 3 0 1 0 1 1 4 5 6 7 8 9 10 0 0 0 0 0 0 0 70 11 CI9 list_type0 0 1 uI10 notran
smit0 0 1 lCCCDCCDI12 finger_index0 0 1 dI12 finger_block1012 0 CZ2 0 4 T1 0 0 2
 20 1 11 11 13 255 4 29 0 1 0 12 0 0 13 0 53 255 5 62 0 14 15 0 16 +0 0 0 .007 0
 0 1 1 0 0 31 255 6 1201 0 9 17 0 0 -0 0 .00580947501931113 0 0 -1 -1 0 0 .0015
 29 255 7 932 0 18 19 0 -.00347328831891721 -.00359669519242749 .001898979485566
355 19 8 CCCCCCCA5 owner12 0 Z8 7 0 1 13 0 20 V0 16 255 9 1198 0 ?21 0 22 6 0 0
 1 18 255 10 918 0 23 0 18 19 5e-8 1 17 255 23 0 24 25 26 10 27 28 0 29 -18 18 9
10 0 30 10 31 7 5e-8 1 29 19 922 0 10 32 7 -.00359669432565838 -.003473287513575
365 .001898979485566355 29 32 909 0 31 33 19 .000695864617218911 -.0049513340281
9299 .00489897948556636 18 31 906 0 25 18 34 32 1006377580167806e-21 1 29 33 901
 0 34 35 32 .000868239985496172 -.0049240336494731 .00489897948556636 18 34 898
 0 36 31 37 33 1005194646922492e-21 1 29 35 731 0 38 39 33 .003596695192427525 -
.003473288318917175 .001898979485566355 18 38 710 0 40 37 41 35 5e-8 1 29 39 722
 0 37 42 35 .0034732875135754 -.003596694325658345 .001898979485566355 18 37 718
 0 43 34 38 39 5e-8 1 29 42 709 0 41 44 39 .00495133402819298 .00069586461721896
1 .00489897948556636 18 41 706 0 45 38 46 42 1006377580167684e-21 1 29 44 701 0
 46 47 42 .00492403364947309 .000868239985496224 .00489897948556636 18 46 698 0
 48 41 49 44 100519464692272e-20 1 29 47 532 0 50 51 44 .003473288318917185 .003
59669519242751 .001898979485566355 18 50 512 0 52 49 53 47 5e-8 1 29 51 524 0 49
 54 47 .003596694325658355 .00347328751357539 .001898979485566355 18 49 520 0 55
 46 50 51 5e-8 1 29 54 511 0 53 56 51 -.000695864617218946 .00495133402819298 .0
0489897948556636 18 53 508 0 57 50 58 54 1006377580168246e-21 1 29 56 503 0 58 5
9 54 -.000868239985496207 .00492403364947309 .00489897948556636 18 58 500 0 60 5
3 61 56 1005194646922492e-21 1 29 59 302 0 61 62 56 -.0034732875135754 .00359669
4325658345 .001898979485566355 18 61 299 0 63 58 64 59 5e-8 1 29 62 458 0 65 66
 59 -.00359669152769819 .003473284635867545 .001898979485566355 18 65 390 0 27 6
7 68 62 5e-8 1 29 66 459 0 64 69 62 -.00493853069305111 -.000781610256964502 .00
489897948556636 18 64 389 0 70 61 71 66 2524659664780305e-21 1 29 69 461 0 71 72
 66 -.0395075336238055 -.00625737860160924 .00489897948556636 18 71 387 0 73 64
 74 69 1e-6 1 29 72 462 0 74 75 69 -.0282842712474619 .0282842712474619 .0018989
79485566355 18 74 391 0 76 71 77 72 ?1 29 75 463 0 77 78 72 -.00495133401048731
 -.00069586474320134 .00489897948556636 18 77 393 0 79 74 67 75 1006378849066732
e-21 1 29 78 464 0 67 80 75 -.00492403366746812 -.000868239883441308 .0048989794
8556636 18 67 388 0 81 77 65 78 1005195680479916e-21 1 29 80 670 0 68 82 78 -.00
0782111871403817 .00493805991221482 .00489897948556636 18 68 604 0 83 65 84 80 1
38654734082598e-20 1 29 82 672 0 84 85 80 -.0062573786016091 .03950753362380555
 .00489897948556636 18 84 598 0 86 68 87 82 1e-6 1 29 85 673 0 87 88 82 .0282842
71247462 .0282842712474618 .001898979485566355 18 87 601 0 89 84 90 85 ?1 29 88
 870 0 90 91 85 .00493805991221468 .000782111871404683 .00489897948556636 18 90
 799 0 92 87 93 88 1386547340829926e-21 1 29 91 872 0 93 94 88 .0395075336238055
 .00625737860160924 .00489897948556636 18 93 798 0 95 90 96 91 1e-6 1 29 94 873
 0 96 97 91 .0282842712474619 -.0282842712474619 .001898979485566355 18 96 801 0
 98 93 99 94 ?1 29 97 1072 0 99 100 94 .000782111871404783 -.00493805991221466 .
00489897948556636 18 99 1001 0 101 96 102 97 138654734082961e-20 1 29 100 1074 0
 102 103 97 .00625737860160882 -.0395075336238056 .00489897948556636 18 102 1000
 0 104 99 105 100 1e-6 1 29 103 1075 0 105 0 100 -.0282842712474622 -.0282842712
474616 .001898979485566355 18 105 1003 0 106 102 0 103 ?1 17 106 0 107 108 109 1
05 110 111 0 112 +15 255 107 271 0 109 113 0 17 108 0 107 27 106 10 114 115 0 0
 +17 109 0 107 106 116 18 43 117 0 110 +17 110 0 118 119 112 18 106 111 0 0 -16
 111 991 0 ?106 120 121 122 0 0 1 17 112 0 118 110 123 105 104 120 0 114 -15 118
 1009 0 110 124 0 17 123 0 118 112 119 102 125 126 127 128 -17 104 0 129 130 114
 102 112 120 0 123 +16 120 988 0 ?104 126 111 131 0 0 1 17 114 0 129 104 29 105
 108 115 0 0 -15 129 1012 0 130 132 0 17 29 0 129 114 130 10 25 133 134 108 -16
 115 992 0 ?108 135 126 136 0 0 1 16 135 993 0 1e-6 128 133 115 0 0 0 1 16 126 9
94 0 1e-6 125 115 120 0 0 0 1 133 255 136 1048 0 115 137 134 0 +138 -.0282842712
474622 -.0282842712474616 .001898979485566355 -.00359669882493497 -.003473292035
33355 .001898979485566355 -.01750044152759735 .0175004287698992 30 255 137 1049
 0 1 122 136 139 +-.0158787779416655 -.01594048138757925 .001898979485566355 -.7
0886749483524 -.705341672358873 0 133 134 1035 0 29 136 140 0 +140 .000695865756
777547 -.00495134030829476 .00489897948556636 -.003596698824934965 -.00347329203
5333545 .001898979485566355 0 1 30 138 1055 0 1 141 142 143 +-.0159404805369305
 -.0158787771196388 .001898979485566355 .705341673298135 .708867493900649 0 137
 255 141 1056 0 1 144 138 145 -146 147 0 ?133 142 1054 0 148 138 122 0 +149 .000
782051402077104 -.00493767812391333 .00489897948556636 .000695863729635974 -.004
95132771266677 .00489897948556636 .499999974077015 0 141 255 143 136 143 143 138
 17 148 0 150 128 151 31 101 152 142 130 +133 122 1050 0 111 142 137 0 +137 -.00
3473284635868825 -.0035966915276969 .001898979485566355 -.0282842712474622 -.028
2842712474616 .001898979485566355 -.01750044034489135 .01750044034489135 137 149
 1058 0 1 153 144 154 -146 155 0 ?133 153 1059 0 151 156 149 0 +149 .00086823908
3455201 -.00492402853374454 .00489897948556636 .000782051402077104 -.00493767812
391333 .00489897948556636 1 .499999974077015 133 144 1057 0 125 149 141 0 +141 .
00625737860160882 -.0395075336238056 .00489897948556636 .000868239083453457 -.00
492402853374481 .00489897948556636 1 0 141 154 153 157 157 149 50 255 146 1027 0
 158 159 160 161 +.002086242447620985 -.0135903791904613 .00489897948556636 6543
24676794351e-29 1053077537058588e-30 -1 -1 0 -654324676794351e-29 134 255 155 0
 0 0 0 0 0 +162 163 136 255 162 1 2 2 2 5 FFF1 164 165 166 135 255 163 2 0 45 25
5 4 164 .00139037871798501 .00863905147779453 .001218003364165784 .0086663506567
1676 127 255 2 165 2 2 128 255 2 166 0 1 14 255 158 1019 167 ?168 132 150 4 146
 -0 0 168 132 20 124 255 159 1029 0 132 169 146 170 +171 172 124 160 828 0 173 1
46 174 175 +176 177 141 161 156 178 179 146 137 156 1060 0 1 180 153 181 -146 18
2 0 ?141 178 141 179 161 146 141 179 149 161 178 146 133 180 1061 0 128 183 156
 0 +156 .000695863729625038 -.00495132771267987 .00489897948556636 .006257378601
60883 -.0395075336238056 .00489897948556636 1 0 141 181 180 181 181 156 134 182
 0 0 0 0 0 0 +184 185 136 184 1 2 2 2 5 FFF1 186 187 188 135 185 2 0 45 4 186 -.
00417113615398784 -.0259171544333443 .001390378717995946 .00863905147778143 127
 2 187 2 2 128 2 188 0 1 17 128 0 150 125 148 102 130 135 180 0 +134 183 1062 0
 1 131 180 189 +190 191 133 131 1063 0 120 192 183 0 +183 -.0282842712474622 -.0
282842712474616 .001898979485566355 .00625737860160882 -.0395075336238056 .00489
897948556636 0 .15 141 189 131 189 189 183 136 190 2 7 4 4 5 FFT8 193 194 195 13
5 191 2 196 184 255 196 0 0 .001898979485566355 0 0 1 -.0282842712474622 -.02828
42712474616 .001898979485566355 +0 .149999999999851 .02 1e-6 45 28 193 -.0282842
712474622 -.0282842712474616 .001898979485566355 1 -.02351141009169925 -.0323606
7977499765 .00236944406722081 .987688340595138 -.01815961998958225 -.03564026096
753455 .002898979485566355 1 -.0123606797749983 -.038042260651806 .0033571324078
1595 .987688340595138 -.00625737860160965 -.03950753362380545 .00389897948556635
5 1 -4249148055419825e-31 -.04 .00434482074841109 .987688340595138 .006257378601
60882 -.0395075336238056 .00489897948556636 1 127 4 194 3 2 2 3 128 4 195 0 .05
 .1 .15 137 192 1064 0 1 197 131 198 -159 199 0 ?133 197 1065 0 130 200 192 0 +1
92 .00625737860160883 -.0395075336238056 .00489897948556636 .000695863729625038
 -.00495132771267987 .00489897948556636 1 0 141 198 197 198 198 192 134 199 0 0
 0 0 0 0 +201 202 136 201 1 2 2 2 5 FFF1 203 204 205 135 202 2 0 45 4 203 1 .15
 0 .15 127 2 204 2 2 128 2 205 0 1 17 130 0 129 29 104 31 128 135 197 0 -137 200
 1066 0 1 127 197 206 -169 207 0 ?133 127 1067 0 123 208 200 0 +200 .00086823908
3453457 -.00492402853374481 .00489897948556636 .00625737860160882 -.039507533623
8056 .00489897948556636 1 0 141 206 127 206 206 200 124 169 1030 0 124 209 159 2
10 +211 212 134 207 0 0 0 0 0 0 +213 214 136 213 1 2 2 2 5 FFF1 215 216 217 135
 214 2 0 45 4 215 1 .15 0 .15 127 2 216 2 2 128 2 217 0 1 14 124 1007 218 ?132 2
19 118 4 169 -0 0 132 219 20 53 209 1179 0 220 221 169 0 +0 0 0 .006 0 0 1 1 0 0
 141 210 200 210 210 169 126 255 211 FF1 2 2 7 5 5 2 4 TFF12 4 222 223 224 225 2
26 125 255 212 0 1 0 .15 0 1 0 .15 2 BBBBBBBBH???227 0 0 0 163 255 227 0 0 .0018
98979485566355 0 0 1 +0 .149999999999851 .02 ?1e-6 45 56 222 -.00347328463586882
5 -.0035966915276969 .001898979485566355 1 -.002867876223365875 -.00409575171056
8135 .00236944406722081 .987688340595138 -.002191851180308155 -.0044939608933045
8 .002898979485566355 1 -.001461855486854234 -.00478151384424675 .00335713240781
595 .987688340595138 -.000695864059693758 -.00495133005540892 .00389897948556635
5 1 87261850056786e-18 -.00499922808808458 .00434482074841109 .987688340595138 .
000868239083453457 -.00492402853374481 .00489897948556636 1 -.0282842712474622 -
.0282842712474616 .001898979485566355 1 -.02351141009169925 -.03236067977499765
 .00236944406722081 .987688340595138 -.01815961998958225 -.03564026096753455 .00
2898979485566355 1 -.0123606797749983 -.038042260651806 .00335713240781595 .9876
88340595138 -.00625737860160965 -.03950753362380545 .003898979485566355 1 -42491
48055419825e-31 -.04 .00434482074841109 .987688340595138 .00625737860160882 -.03
95075336238056 .00489897948556636 1 127 2 223 2 2 127 5 224 3 2 2 3 0 128 2 225
 0 1 128 5 226 0 .05 .1 .15 ?14 220 1173 228 ?229 168 230 4 209 -231 231 232 168
 20 51 255 221 1180 0 168 233 209 0 -0 0 .001898979485566355 0 0 1 .004 1 0 0 14
 168 1165 234 ?220 158 235 4 221 +0 0 220 158 20 51 233 1242 0 232 236 221 0 +0
 0 5e2 0 0 -1 .0015 -1 0 0 14 232 1235 237 ?231 238 239 4 233 -0 0 238 220 20 51
 236 1243 0 238 240 233 0 +0 0 5e2 0 0 -1 .0025 -1 0 0 14 238 1230 241 ?232 229
 242 4 236 +0 0 229 232 20 50 240 1244 0 229 0 236 0 +0 0 -.0001010205144336434
 0 0 -1 -1 0 0 14 229 1224 243 ?238 220 244 4 240 +0 0 231 238 20 81 255 1 243 1
383 245 229 246 0 241 247 248 15 244 1228 0 249 229 250 14 231 1202 247 ?0 232 2
51 4 209 -220 220 0 229 20 13 20 8 0 0 0 0 0 0 8 12 14 12 955 252 ?253 0 24 4 15
 -253 254 253 0 20 81 1 252 1385 245 12 255 0 247 256 257 14 253 950 256 ?113 12
 258 4 15 -259 12 113 12 20 15 24 953 0 25 12 0 51 15 277 0 12 260 5 261 -0 0 .0
01898979485566355 0 0 1 .005 1 0 0 14 254 548 262 ?14 259 263 4 15 -12 259 14 25
9 20 81 1 262 1387 245 254 264 0 256 265 266 14 14 57 265 ?267 254 268 4 5 +0 0
 267 254 20 14 259 748 269 ?254 113 270 4 15 -254 253 254 113 20 15 263 545 0 52
 254 0 17 52 0 263 271 272 50 273 274 0 275 -17 271 0 263 276 52 61 275 277 0 0
 -17 272 0 263 52 276 58 278 279 0 273 +17 273 0 280 281 282 58 52 274 0 283 +16
 274 544 0 ?273 284 285 286 0 0 1 17 275 0 107 89 63 50 271 277 0 282 +17 89 0 1
07 287 275 87 282 288 0 289 +17 63 0 107 275 76 61 290 291 0 292 +16 277 300 0 ?
275 293 294 295 0 0 1 17 282 0 280 273 289 50 89 288 0 0 -15 280 607 0 282 296 0
 17 289 0 280 282 281 87 86 297 0 298 -16 288 590 0 ?89 297 299 300 0 0 1 16 297
 586 0 ?86 301 288 302 0 0 1 16 299 594 0 1e-6 303 288 304 0 0 0 1 133 300 648 0
 288 305 306 0 +306 .003473284635868805 .003596691527696925 .001898979485566355
 .028284271247462 .0282842712474618 .001898979485566355 -.01750044034489135 .017
50044034489135 133 305 652 0 307 308 300 0 +309 -.000782051402076139 .0049376781
2391348 .00489897948556636 -.000695863729636009 .00495132771266676 .004898979485
56636 .499999974071214 0 30 306 647 0 1 300 310 311 +.0158787779416654 .01594048
138757935 .001898979485566355 .708867494835235 .705341672358878 0 133 310 646 0
 312 306 313 0 +308 .028284271247462 .0282842712474618 .001898979485566355 .0035
96698824934945 .00347329203533357 .001898979485566355 -.01750044152759735 .01750
04287698992 141 311 300 311 311 306 16 312 591 0 ?287 314 301 310 0 0 1 133 313
 633 0 315 310 316 0 +316 -.000695865756777581 .00495134030829475 .0048989794855
6636 .003596698824934945 .00347329203533357 .001898979485566355 0 1 30 308 653 0
 1 317 305 318 +.0159404805369304 .01587877711963895 .001898979485566355 -.70534
167329813 -.708867493900654 0 137 317 654 0 1 319 308 320 -321 322 0 ?141 318 31
0 318 318 308 133 319 655 0 283 309 317 0 +317 -.0062573786016091 .0395075336238
0555 .00489897948556636 -.000868239083453491 .0049240285337448 .0048989794855663
6 1 0 141 320 319 320 320 317 50 321 625 0 323 324 325 326 +-.00208624244762108
 .01359037919046128 .00489897948556636 -654324676794347e-29 -105307753705863e-29
 -1 -1 0 654324676794347e-29 134 322 0 0 0 0 0 0 +327 328 136 327 1 2 2 2 5 FFF1
 329 330 331 135 328 2 0 45 4 329 -.001218003364167588 -.00866635065671648 .0041
7113615398802 .02591715443334425 127 2 330 2 2 128 2 331 0 1 14 323 617 332 ?173
 333 334 4 321 -0 0 173 333 20 124 324 627 0 333 335 321 336 +337 338 124 325 41
7 0 339 321 340 341 +342 343 141 326 344 345 346 321 137 344 658 0 1 347 348 349
 -321 350 0 ?141 345 317 346 326 321 141 346 309 326 345 321 137 309 656 0 1 348
 319 351 -321 352 0 ?133 348 657 0 303 344 309 0 +309 -.000868239083455236 .0049
2402853374453 .00489897948556636 -.000782051402076139 .00493767812391348 .004898
97948556636 1 .499999974071214 141 351 348 353 353 309 134 352 0 0 0 0 0 0 +354
 355 136 354 1 2 2 2 5 FFF1 356 357 358 135 355 2 0 45 4 356 -.00139037871798507
 -.00863905147779452 -.001218003364165842 -.00866635065671675 127 2 357 2 2 128
 2 358 0 1 141 353 305 351 351 309 17 303 0 334 307 283 68 60 299 348 0 +15 334
 619 0 359 323 0 17 307 0 334 359 303 53 83 360 305 361 +17 283 0 334 303 359 58
 281 301 319 0 +17 60 0 268 278 83 58 303 299 362 272 -15 268 88 0 363 14 0 17 2
78 0 268 364 60 77 272 279 0 0 -17 83 0 268 60 365 68 307 360 366 303 -133 362 6
78 0 60 367 368 0 +368 -.000782172325203687 .00493844170297529 .0048989794855663
6 -.000868240887537179 .00492403876520166 .00489897948556636 0 1 137 367 581 0 1
 369 362 370 -15 371 0 ?137 368 679 0 1 362 366 372 +5 373 0 ?133 366 681 0 83 3
68 374 0 +374 -.000695865504812819 .0049513403437061 .00489897948556636 -.000782
172325203687 .00493844170297529 .00489897948556636 0 1 141 372 362 372 372 368 1
34 373 0 0 0 0 0 0 +375 376 136 375 1 2 2 2 5 FFF1 377 378 379 135 376 1 0 45 4
 377 1.7278759594749 .775193373310361 1.745329251832375 .775193373310361 127 2 3
78 2 2 128 2 379 0 1 137 374 682 0 1 366 286 380 +5 381 0 ?133 286 686 0 274 374
 382 0 +382 .003473292001966815 .003596698857156845 .001898979485566355 -.000868
240683427346 .00492403880119172 .00489897948556636 0 .15 141 380 366 380 380 374
 134 381 0 0 0 0 0 0 +383 384 136 383 1 2 2 2 5 FFF1 385 386 387 135 384 1 0 45
 4 385 1.710422666956965 .775193373310361 1.7278759594749 .775193373310361 127 2
 386 2 2 128 2 387 0 1 134 382 687 0 1 286 388 389 +390 391 133 388 708 0 392 38
2 393 0 +394 .00495134034370609 .000695865504812837 .00489897948556636 .00086824
0887537143 -.00492403876520166 .00489897948556636 .139626340162073 -1.3962634017
57426 141 389 286 389 389 382 136 390 2 7 4 4 5 FFT8 395 396 397 135 391 2 398 1
84 398 0 0 .001898979485566355 0 0 1 .003473292001966815 .003596698857156845 .00
1898979485566355 +0 .149999999999851 .02 1e-6 45 28 395 .003473292001966815 .003
596698857156845 .001898979485566355 1 .002867882352194825 .004095760102101865 .0
0236944406722081 .987688340595138 .002191855920955965 .00449397014028468 .002898
979485566355 1 .001461858722590416 .00478152371898188 .00335713240781595 .987688
340595138 .000695865710843751 .00495134031475033 .003898979485566355 1 -87261824
149776e-18 .00499923847941325 .00434482074841109 .987688340595138 -.000868240683
427346 .00492403880119172 .00489897948556636 1 127 4 396 3 2 2 3 128 4 397 0 .05
 .1 .15 16 392 707 0 ?399 400 152 388 0 0 1 133 393 720 0 117 388 401 0 +402 .00
347329203533358 -.003596698824934935 .001898979485566355 -.00347329200196684 -.0
0359669885715682 .001898979485566355 3.944444058616465 5.48033389287587 31 394 3
21 0 1 295 403 404 -0 0 .00489897948556636 0 0 1 1 0 0 .005 133 295 303 0 277 40
2 394 0 +402 -.003473291943818945 .003596698913309595 .001898979485566355 .00347
3292001966815 .003596698857156845 .001898979485566355 .802851430470737 2.3387412
3928607 133 403 328 0 279 394 405 0 +394 -.00495134030829475 -.00069586575677759
5 .00489897948556636 -.000868240887537178 .00492403876520166 .00489897948556636
 3.28121904464006 1.745329251832375 141 404 403 406 407 394 141 406 408 409 404
 394 141 407 410 404 409 394 133 410 510 0 411 412 413 0 +394 -.0006958655048128
2 .0049513403437061 .00489897948556636 .00492403876520165 .000868240887537195 .0
0489897948556636 1.710422666956965 .1745329250374815 141 409 388 407 406 394 16
 411 509 0 ?414 360 400 410 0 0 1 134 412 480 0 1 415 410 416 -417 418 133 413 5
22 0 294 410 369 0 +402 .00359669882493494 .00347329203533357 .00189897948556635
5 .00359669885715686 -.0034732920019668 .001898979485566355 2.373647731821575 3.
90953756608096 16 294 521 0 ?419 277 117 413 0 0 1 133 369 580 0 57 413 367 0 +3
67 .003596698824934945 .00347329203533357 .001898979485566355 -.0006958657567775
8 .00495134030829475 .00489897948556636 1 0 31 402 281 0 1 420 295 421 +0 0 .001
898979485566355 0 0 -1 -1 0 0 .005 30 420 435 0 1 422 402 423 +-.015878777119639
 .01594048053693035 .001898979485566355 .708867493900657 -.705341673298128 0 141
 421 295 424 425 402 141 424 426 427 421 402 141 425 413 421 427 402 141 427 393
 425 424 402 133 426 920 0 28 408 428 0 +402 -.003596698824934965 -.003473292035
333545 .001898979485566355 -.00359669885715686 .0034732920019668 .00189897948556
6355 5.51524038541137 7.05113021967075 16 28 919 0 ?27 117 429 426 0 0 1 133 408
 908 0 293 430 426 0 +394 .000695865504812785 -.0049513403437061 .00489897948556
636 -.00492403880119172 -.000868240683427363 .00489897948556636 4.85201532054675
 3.316125537175565 133 428 982 0 25 426 431 0 +431 -.00359669882493497 -.0034732
92035333545 .001898979485566355 .000695865756777545 -.00495134030829476 .0048989
7948556636 1 0 17 25 0 24 81 23 31 29 133 428 432 +137 431 983 0 1 428 433 434 -
15 435 0 ?133 433 1080 0 36 431 436 0 +436 .000782172325204649 -.004938441702975
14 .00489897948556636 .000868240887537143 -.00492403876520166 .00489897948556636
 0 1 141 434 428 434 434 431 134 435 0 0 0 0 0 0 +437 438 136 437 1 2 2 2 5 FFF1
 439 440 441 135 438 1 0 45 4 439 4.85201537143495 .003 3.909537575358005 0 127
 2 440 2 2 128 2 441 0 1 17 36 0 268 442 101 34 151 121 433 399 -137 436 1081 0
 1 433 443 444 +5 445 0 ?133 443 1083 0 101 436 446 0 +446 .000695865504812782 -
.0049513403437061 .00489897948556636 .000782172325204649 -.00493844170297514 .00
489897948556636 0 1 141 444 433 444 444 436 134 445 0 0 0 0 0 0 +447 448 136 447
 1 2 2 2 5 FFF1 449 450 451 135 448 1 0 45 4 449 4.86946861306489 .7751933733103
61 4.88692190542216 .775193373310361 127 2 450 2 2 128 2 451 0 1 17 101 0 268 36
 432 99 148 152 443 151 -137 446 1084 0 1 443 452 453 +5 454 0 ?133 452 1088 0 2
2 446 17 0 +17 -.00347329200196684 -.00359669885715682 .001898979485566355 .0008
68240683427312 -.00492403880119173 .00489897948556636 0 .15 141 453 443 453 453
 446 134 454 0 0 0 0 0 0 +455 456 136 455 1 2 2 2 5 FFF1 457 458 459 135 456 1 0
 45 4 457 4.85201532054675 .775193373310361 4.86946861306489 .775193373310361 12
7 2 458 2 2 128 2 459 0 1 16 22 946 0 ?119 9 284 452 0 0 1 134 17 1089 0 1 452 6
 460 +461 462 141 460 452 460 460 17 136 461 2 7 4 4 5 FFT8 463 464 465 135 462
 2 466 184 466 0 0 .001898979485566355 0 0 1 -.00347329200196684 -.0035966988571
5682 .001898979485566355 +0 .149999999999851 .02 1e-6 45 28 463 -.00347329200196
684 -.00359669885715682 .001898979485566355 1 -.002867882352194855 -.00409576010
2101845 .00236944406722081 .987688340595138 -.002191855920955995 -.0044939701402
84665 .002898979485566355 1 -.00146185872259045 -.00478152371898187 .00335713240
781595 .987688340595138 -.000695865710843786 -.00495134031475033 .00389897948556
6355 1 872618241497413e-19 -.00499923847941325 .00434482074841109 .9876883405951
38 .000868240683427312 -.00492403880119173 .00489897948556636 1 127 4 464 3 2 2
 3 128 4 465 0 .05 .1 .15 17 119 0 118 123 110 34 30 22 0 125 +16 284 744 0 ?467
 22 274 468 0 0 1 17 467 0 469 470 471 46 40 284 0 472 +133 468 886 0 284 473 43
0 0 +430 .00359669885715686 -.003473292001966805 .001898979485566355 .0049240388
0119172 .000868240683427363 .00489897948556636 0 .15 137 473 882 0 1 474 468 475
 +5 476 0 ?134 430 887 0 1 468 408 477 +478 479 141 477 468 477 477 430 136 478
 2 7 4 4 5 FFT8 480 481 482 135 479 2 483 184 483 0 0 .001898979485566355 0 0 1
 .00359669885715686 -.003473292001966805 .001898979485566355 +0 .149999999999851
 .02 1e-6 45 28 480 .00359669885715686 -.003473292001966805 .001898979485566355
 1 .004095760102101875 -.002867882352194815 .00236944406722081 .987688340595138
 .004493970140284685 -.002191855920955945 .002898979485566355 1 .004781523718981
89 -.0014618587225904 .00335713240781595 .987688340595138 .00495134031475034 -.0
00695865710843733 .003898979485566355 1 .00499923847941325 872618241497939e-19 .
00434482074841109 .987688340595138 .00492403880119172 .000868240683427363 .00489
897948556636 1 127 4 481 3 2 2 3 128 4 482 0 .05 .1 .15 133 474 881 0 92 484 473
 0 +473 .00495134034370609 .000695865504812837 .00489897948556636 .0049384417029
7515 .000782172325204553 .00489897948556636 0 1 141 475 474 475 475 473 134 476
 0 0 0 0 0 0 +485 486 136 485 1 2 2 2 5 FFF1 487 488 489 135 486 1 0 45 4 487 .1
39626340162073 .775193373310361 .157079632680178 .775193373310361 127 2 488 2 2
 128 2 489 0 1 17 92 0 268 48 442 90 490 400 474 491 -137 484 879 0 1 492 474 49
3 +5 494 0 ?133 492 878 0 48 495 484 0 +484 .00493844170297515 .0007821723252045
53 .00489897948556636 .00492403876520165 .000868240887537195 .00489897948556636
 0 1 141 493 492 493 493 484 134 494 0 0 0 0 0 0 +496 497 136 496 1 2 2 2 5 FFF1
 498 499 500 135 497 1 0 45 4 498 .157079632680178 .775193373310361 .17453292503
74815 .775193373310361 127 2 499 2 2 128 2 500 0 1 17 48 0 268 365 92 46 491 501
 492 414 -137 495 781 0 1 401 492 502 -15 503 0 ?133 401 780 0 45 393 495 0 +495
 .00347329203533358 -.003596698824934935 .001898979485566355 .00495134030829475
 .000695865756777593 .00489897948556636 1 0 141 502 401 502 502 495 134 503 0 0
 0 0 0 0 +504 505 136 504 1 2 2 2 5 FFF1 506 507 508 135 505 1 0 45 4 506 6.4228
1169822985 .003 5.48033390215291 0 127 2 507 2 2 128 2 508 0 1 17 45 0 258 399 4
3 41 509 304 401 442 +15 258 947 0 30 253 0 17 399 0 258 30 45 34 442 392 0 119
 +17 43 0 258 45 30 37 109 117 0 509 -17 509 0 510 511 512 37 45 304 513 116 -16
 304 796 0 5e-8 45 299 514 0 0 0 1 17 442 0 268 92 36 41 399 392 0 490 -17 490 0
 515 516 491 41 92 400 517 512 +15 515 819 0 516 219 0 17 516 0 515 472 490 93 5
12 514 518 0 +17 491 0 515 490 472 90 48 501 519 0 +16 400 703 0 1e-6 490 411 39
2 0 0 0 1 133 517 852 0 490 520 521 0 +522 .00493767812391334 .00078205140207700
5 .00489897948556636 .00495132771266676 .000695863729636026 .00489897948556636 .
499999974076138 0 17 512 0 510 509 95 41 516 514 523 0 -15 510 810 0 512 524 0 1
7 95 0 510 512 511 93 525 526 0 470 +16 514 791 0 1e-6 516 304 527 0 0 0 1 133 5
23 863 0 512 528 529 0 +529 .0395075336238055 .00625737860160924 .00489897948556
636 .00495132771267986 .000695863729625086 .00489897948556636 1 0 137 528 864 0
 1 530 523 531 -160 532 0 ?137 529 862 0 1 523 533 534 -174 535 0 ?133 533 861 0
 526 529 536 0 +536 .0282842712474619 -.0282842712474619 .001898979485566355 .03
95075336238055 .00625737860160924 .00489897948556636 0 .15 141 534 523 534 534 5
29 124 174 827 0 524 160 537 538 +539 540 134 535 0 0 0 0 0 0 +541 542 136 541 1
 2 2 2 5 FFF1 543 544 545 135 542 2 0 45 4 543 1 .15 0 .15 127 2 544 2 2 128 2 5
45 0 1 14 524 808 546 ?219 173 510 4 174 -0 0 219 173 20 50 537 825 0 219 174 33
5 547 +.01359037919046128 .002086242447621125 .00489897948556636 -10530775370586
24e-30 654324676794329e-29 -1 0 1 654324676794329e-29 141 538 529 548 548 174 12
6 539 FF1 2 2 7 5 5 2 4 TFF12 4 549 550 551 552 553 125 540 0 1 0 .15 0 1 0 .15
 2 BBBBBBBBH???554 0 0 0 163 554 0 0 .001898979485566355 0 0 1 +0 .1500000000000
105 .02 ?1e-6 45 56 549 .0282842712474619 -.0282842712474619 .001898979485566355
 1 .0323606797749979 -.02351141009169895 .00236944406722081 .987688340595138 .03
56402609675347 -.01815961998958185 .002898979485566355 1 .03804226065180615 -.01
23606797749979 .00335713240781595 .987688340595138 .0395075336238055 -.006257378
60160924 .003898979485566355 1 .04 -3426732302757925e-33 .00434482074841109 .987
688340595138 .0395075336238055 .00625737860160924 .00489897948556636 1 .00347328
2991816075 -.003596689826398785 .001898979485566355 1 .00399316736351247 -.00300
906743951315 .00236944406722081 .987688340595138 .00441472670215651 -.0023473518
2574442 .002898979485566355 1 .00472758081775554 -.001627836619611795 .003357132
40781595 .987688340595138 .00492402620368025 -.000868238673424327 .0038989794855
66355 1 .00499922572256429 -872618095781997e-19 .00434482074841109 .987688340595
138 .00495132771267986 .000695863729625086 .00489897948556636 1 127 2 550 2 2 12
7 5 551 3 2 2 3 0 128 2 552 0 1 128 5 553 0 .05 .1 .15 ?141 548 555 538 538 174
 137 555 832 0 1 513 556 557 +174 558 0 ?133 513 833 0 509 559 555 0 +555 .00495
134030829475 .000695865756777595 .00489897948556636 .00347329203533358 -.0035966
9882493493 .001898979485566355 0 1 133 556 665 0 281 555 560 0 +560 -.0008682390
83453491 .0049240285337448 .00489897948556636 -.0062573786016091 .03950753362380
555 .00489897948556636 1 0 141 557 513 557 557 555 134 558 0 0 0 0 0 0 +561 562
 136 561 1 2 2 2 5 FFF1 563 564 565 135 562 1 0 45 4 563 .999999635503535 .15 .9
99999635503535 0 127 2 564 2 2 128 2 565 0 1 17 281 0 280 289 273 84 283 301 556
 359 -137 560 664 0 1 556 566 567 -335 568 0 ?133 566 663 0 361 560 569 0 +569 -
.0062573786016091 .03950753362380555 .00489897948556636 -.000695863729625071 .00
495132771267987 .00489897948556636 1 0 141 567 556 567 567 560 124 335 628 0 296
 537 324 570 +571 572 134 568 0 0 0 0 0 0 +573 574 136 573 1 2 2 2 5 FFF1 575 57
6 577 135 574 2 0 45 4 575 1 .15 0 .15 127 2 576 2 2 128 2 577 0 1 14 296 605 57
8 ?333 579 280 4 335 -0 0 333 579 20 141 570 560 570 570 335 126 571 FF1 2 2 7 5
 5 2 4 TFF12 4 580 581 582 583 584 125 572 0 1 0 .15 0 1 0 .15 2 BBBBBBBBH???585
 0 0 0 163 585 0 0 .001898979485566355 0 0 1 +0 .149999999999851 .02 ?1e-6 45 56
 580 .0034732846358688 .003596691527696925 .001898979485566355 1 .00286787622336
5845 .004095751710568155 .00236944406722081 .987688340595138 .00219185118030812
 .004493960893304595 .002898979485566355 1 .0014618554868542 .00478151384424676
 .00335713240781595 .987688340595138 .000695864059693724 .00495133005540892 .003
898979485566355 1 -872618500568207e-19 .00499922808808458 .00434482074841109 .98
7688340595138 -.000868239083453491 .0049240285337448 .00489897948556636 1 .02828
4271247462 .0282842712474618 .001898979485566355 1 .02351141009169905 .032360679
7749978 .00236944406722081 .987688340595138 .018159619989582 .03564026096753465
 .002898979485566355 1 .01236067977499804 .0380422606518061 .00335713240781595 .
987688340595138 .00625737860160937 .0395075336238055 .003898979485566355 1 14392
27567158328e-31 .04 .00434482074841109 .987688340595138 -.0062573786016091 .0395
0753362380555 .00489897948556636 1 127 2 581 2 2 127 5 582 3 2 2 3 0 128 2 583 0
 1 128 5 584 0 .05 .1 .15 ?81 1 578 1392 245 296 586 0 546 587 588 14 333 608 58
7 ?323 296 589 4 324 -0 0 323 296 20 14 579 406 590 ?296 339 591 4 592 -0 0 296
 339 20 81 1 590 1394 245 579 593 0 587 594 595 14 339 397 594 ?579 267 596 4 32
5 -0 0 579 267 20 15 591 408 0 597 579 0 50 592 414 0 579 340 260 598 +-.0135903
7919046128 -.002086242447621125 .00489897948556636 1053077537058624e-30 -6543246
76794329e-29 -1 0 1 -654324676794329e-29 124 340 416 0 267 325 592 599 +600 601
 50 260 279 0 113 592 15 0 +0 0 .001898979485566355 0 0 -1 -1 0 0 141 598 602 60
3 604 592 137 602 447 0 1 605 606 607 -592 608 0 ?141 603 609 604 598 592 141 60
4 610 598 603 592 137 610 445 0 1 606 611 612 -592 613 0 ?133 606 446 0 70 602 6
10 0 +610 -.00492402853374453 -.000868239083455253 .00489897948556636 -.00493776
713422677 -.00078148936377123 .00489897948556636 1 .496739424970233 133 611 444
 0 614 610 609 0 +609 -.0395075336238055 -.00625737860160924 .00489897948556636
 -.0049240285337448 -.000868239083453508 .00489897948556636 1 0 141 612 606 615
 615 610 134 613 0 0 0 0 0 0 +616 617 136 616 1 2 2 2 5 FFF1 618 619 620 135 617
 2 0 45 4 618 .001390378717985098 .00863905147779452 .00121800336416587 .0086663
5065671675 127 2 619 2 2 128 2 620 0 1 141 615 621 612 612 610 133 621 442 0 79
 609 622 0 +610 -.00493776713422677 -.00078148936377123 .00489897948556636 -.004
95132771266676 -.000695863729636026 .00489897948556636 .496739424970233 0 17 79
 0 591 597 70 77 364 623 621 624 +137 609 443 0 1 611 621 625 -592 626 0 ?133 62
2 438 0 627 621 628 0 +628 -.00359669152769694 .00347328463586879 .0018989794855
66355 -.0282842712474619 .0282842712474619 .001898979485566355 -.017500440344891
35 .01750044034489135 16 627 378 0 ?76 629 623 622 0 0 1 30 628 437 0 1 622 422
 630 +-.0159404813875794 .01587877794166535 .001898979485566355 -.70534167235888
 .708867494835232 0 133 422 436 0 291 628 420 0 +420 -.0282842712474619 .0282842
712474619 .001898979485566355 -.003473282991816075 .003596689826398785 .00189897
9485566355 -.01750044152759735 .01750044152759735 141 630 622 630 630 628 16 291
 379 0 ?63 429 631 422 0 0 1 16 429 380 0 1e-6 597 28 291 0 0 0 1 16 631 381 0 1
e-6 614 291 629 0 0 0 1 17 614 0 591 70 597 67 632 631 611 363 +16 629 374 0 ?73
 631 627 633 0 0 1 17 73 0 634 624 290 71 635 629 0 632 +133 633 450 0 629 636 6
37 0 +637 -.0282842712474619 .0282842712474619 .001898979485566355 -.03950753362
38055 -.00625737860160924 .00489897948556636 0 .15 137 636 451 0 1 638 633 639 -
340 640 0 ?134 637 449 0 1 633 605 641 +642 643 133 605 448 0 597 637 602 0 +602
 -.00495132771267986 -.000695863729625086 .00489897948556636 -.0395075336238055
 -.00625737860160924 .00489897948556636 1 0 141 641 633 641 641 637 136 642 2 7
 4 4 5 FFT8 644 645 646 135 643 2 647 184 647 0 0 .001898979485566355 0 0 1 -.02
82842712474619 .0282842712474619 .001898979485566355 +0 .149999999999851 .02 1e-
6 45 28 644 -.0282842712474619 .0282842712474619 .001898979485566355 1 -.0323606
797749979 .02351141009169895 .00236944406722081 .987688340595138 -.0356402609675
347 .01815961998958185 .002898979485566355 1 -.03804226065180615 .01236067977499
79 .00335713240781595 .987688340595138 -.0395075336238055 .00625737860160924 .00
3898979485566355 1 -.04 3426732302757925e-33 .00434482074841109 .987688340595138
 -.0395075336238055 -.00625737860160924 .00489897948556636 1 127 4 645 3 2 2 3 1
28 4 646 0 .05 .1 .15 17 597 0 591 614 79 71 624 429 605 0 +17 624 0 634 292 73
 77 597 429 638 276 -15 634 396 0 624 267 0 17 292 0 634 290 624 61 276 285 0 27
1 +133 638 452 0 624 648 636 0 +636 -.0395075336238055 -.00625737860160924 .0048
9897948556636 -.00495132771267986 -.000695863729625086 .00489897948556636 1 0 17
 276 0 263 272 271 77 292 285 0 278 -16 285 338 0 ?292 274 649 415 0 0 1 16 649
 332 0 ?650 285 651 652 0 0 1 133 415 479 0 285 653 412 0 +412 -.004951340308294
75 -.000695865756777595 .00489897948556636 -.00347329203533358 .0035966988249349
3 .001898979485566355 .15 0 134 653 476 0 1 652 415 654 +655 656 133 652 475 0 6
49 657 653 0 +653 -.00359669896009569 .00347329189537053 .00189897957912748 -.00
492403880119172 -.000868240683427363 .00489897948556636 0 .15 141 654 652 654 65
4 653 136 655 2 7 4 4 5 FFT8 658 659 660 135 656 2 661 184 661 0 0 .001898979485
566355 0 0 1 -.00359669885715686 .003473292001966805 .001898979485566355 +0 .149
999999999851 .02 1e-6 45 28 658 -.00359669885715686 .003473292001966805 .0018989
79485566355 1 -.004095760102101875 .002867882352194815 .00236944406722081 .98768
8340595138 -.004493970140284685 .002191855920955945 .002898979485566355 1 -.0047
8152371898189 .0014618587225904 .00335713240781595 .987688340595138 -.0049513403
1475034 .000695865710843733 .003898979485566355 1 -.00499923847941325 -872618241
497939e-19 .00434482074841109 .987688340595138 -.00492403880119172 -.00086824068
3427363 .00489897948556636 1 127 4 659 3 2 2 3 128 4 660 0 .05 .1 .15 137 657 47
1 0 1 662 652 663 +5 664 0 ?133 662 470 0 364 665 657 0 +657 -.00495134030829475
 -.000695865756777591 .00489897948556636 -.00493853069305111 -.00078161025696449
8 .00489897948556636 0 1 141 663 662 663 663 657 134 664 0 0 0 0 0 0 +666 667 13
6 666 1 2 2 2 5 FFF1 668 669 670 135 667 1 0 45 4 668 3.28121904464006 .77519337
3310361 3.298558472397275 .775193373310361 127 2 669 2 2 128 2 670 0 1 17 364 0
 268 363 278 64 79 623 662 0 -137 665 467 0 1 405 662 671 +5 672 0 ?133 405 466
 0 363 403 665 0 +665 -.00493853069305111 -.000781610256964498 .0048989794855663
6 -.00492403880119172 -.000868240683427359 .00489897948556636 0 1 141 671 405 67
1 671 665 134 672 0 0 0 0 0 0 +673 674 136 673 1 2 2 2 5 FFF1 675 676 677 135 67
4 1 0 45 4 675 3.298558472397275 .775193373310361 3.316125537175565 .77519337331
0361 127 2 676 2 2 128 2 677 0 1 17 363 0 268 432 364 67 70 651 405 0 -17 432 0
 268 101 363 31 81 293 0 148 -17 70 0 591 79 614 64 363 651 606 364 +16 651 84 0
 1e-6 70 649 279 0 0 0 1 16 279 327 0 ?272 651 360 403 0 0 1 16 360 505 0 1e-6 3
07 279 411 0 0 0 1 17 81 0 24 26 25 67 432 293 0 650 +16 293 907 0 ?81 152 277 4
08 0 0 1 16 152 903 0 1e-6 148 392 293 0 0 0 1 17 26 0 24 23 81 65 650 649 0 0 -
17 650 0 596 632 678 67 26 649 0 614 +15 596 399 0 678 339 0 17 632 0 596 635 65
0 71 614 631 679 597 -17 678 0 596 650 635 65 76 627 0 26 -17 635 0 596 678 632
 74 73 629 0 290 -17 76 0 107 63 27 74 678 627 0 635 +17 27 0 107 76 108 65 23 2
8 0 678 +17 290 0 634 73 292 74 63 291 0 0 -133 679 454 0 632 316 648 0 +648 -.0
049240285337448 -.000868239083453508 .00489897948556636 -.0395075336238055 -.006
25737860160924 .00489897948556636 1 0 137 316 632 0 1 313 679 680 +324 681 0 ?13
7 648 453 0 1 679 638 682 -325 683 0 ?141 682 679 682 682 648 134 683 0 0 0 0 0
 0 +684 685 136 684 1 2 2 2 5 FFF1 686 687 688 135 685 2 0 45 4 686 1 .15 0 .15
 127 2 687 2 2 128 2 688 0 1 141 680 313 680 680 316 134 681 0 0 0 0 0 0 +689 69
0 136 689 1 2 2 2 5 FFF1 691 692 693 135 690 1 0 45 4 691 .999999635503535 .15 .
999999635503535 0 127 2 692 2 2 128 2 693 0 1 16 623 383 0 1e-6 79 627 694 0 0 0
 1 16 694 589 0 5e-8 57 623 314 0 0 0 1 17 57 0 270 414 55 53 315 694 369 365 +1
6 314 592 0 1e-6 359 694 312 0 0 0 1 17 359 0 334 283 307 84 361 314 347 0 +17 3
61 0 589 315 86 53 359 314 566 0 -133 347 659 0 359 695 344 0 +344 -.00069586372
9625071 .00495132771267987 .00489897948556636 -.0062573786016091 .03950753362380
555 .00489897948556636 1 0 134 695 660 0 1 302 347 696 +697 698 133 302 661 0 29
7 569 695 0 +695 .028284271247462 .0282842712474618 .001898979485566355 -.006257
3786016091 .03950753362380555 .00489897948556636 0 .15 141 696 302 696 696 695 1
36 697 2 7 4 4 5 FFT8 699 700 701 135 698 2 702 184 702 0 0 .001898979485566355
 0 0 1 .028284271247462 .0282842712474618 .001898979485566355 +0 .14999999999985
1 .02 1e-6 45 28 699 .028284271247462 .0282842712474618 .001898979485566355 1 .0
2351141009169905 .0323606797749978 .00236944406722081 .987688340595138 .01815961
9989582 .03564026096753465 .002898979485566355 1 .01236067977499804 .03804226065
18061 .00335713240781595 .987688340595138 .00625737860160937 .0395075336238055 .
003898979485566355 1 1439227567158328e-31 .04 .00434482074841109 .98768834059513
8 -.0062573786016091 .03950753362380555 .00489897948556636 1 127 4 700 3 2 2 3 1
28 4 701 0 .05 .1 .15 137 569 662 0 1 566 302 703 -324 704 0 ?141 703 566 703 70
3 569 134 704 0 0 0 0 0 0 +705 706 136 705 1 2 2 2 5 FFF1 707 708 709 135 706 2
 0 45 4 707 1 .15 0 .15 127 2 708 2 2 128 2 709 0 1 15 589 610 0 361 333 0 17 31
5 0 589 298 361 49 57 694 313 287 -17 86 0 589 361 298 84 289 297 0 281 +17 298
 0 589 86 315 87 287 312 0 0 -17 287 0 107 419 89 49 298 312 0 0 +17 419 0 107 9
8 287 38 55 294 0 471 +17 98 0 107 116 419 96 471 710 0 525 +17 55 0 270 57 40 4
9 419 294 0 315 -17 471 0 469 467 525 38 98 710 0 0 -15 469 807 0 471 173 0 17 5
25 0 469 471 470 96 95 526 0 511 -16 710 789 0 ?98 526 501 521 0 0 1 16 526 786
 0 ?95 711 710 533 0 0 1 16 501 793 0 1e-6 491 710 133 0 0 0 1 133 521 848 0 710
 517 712 0 +712 .00359669152769694 -.00347328463586879 .001898979485566355 .0282
842712474619 -.0282842712474619 .001898979485566355 -.01750044034489135 .0175004
4034489135 30 712 847 0 1 521 559 713 +.0159404813875794 -.01587877794166535 .00
1898979485566355 .70534167235888 -.708867494835232 0 133 559 846 0 527 712 513 0
 +520 .0282842712474619 -.0282842712474619 .001898979485566355 .0034732920353335
8 -.003596698824934935 .001898979485566355 -.01750044152759735 .0175004287698992
 141 713 521 713 713 712 16 527 790 0 ?116 514 711 559 0 0 1 30 520 853 0 1 714
 517 715 +.015878777119639 -.01594048053693035 .001898979485566355 -.70886749390
0657 .705341673298128 0 137 714 854 0 1 716 520 717 -537 718 0 ?141 715 559 715
 715 520 133 716 855 0 472 522 714 0 +714 .0395075336238055 .00625737860160924 .
00489897948556636 .0049240285337448 .000868239083453508 .00489897948556636 1 0 1
41 717 716 717 717 714 134 718 0 0 0 0 0 0 +719 720 136 719 1 2 2 2 5 FFF1 721 7
22 723 135 720 2 0 45 4 721 -.001218003364167616 -.00866635065671648 .0041711361
53988115 .02591715443334425 127 2 722 2 2 128 2 723 0 1 17 472 0 515 491 516 46
 470 711 716 0 +137 522 856 0 1 519 716 724 -537 725 0 ?133 519 857 0 491 726 52
2 0 +522 .00492402853374453 .000868239083455253 .00489897948556636 .004937678123
91334 .000782051402077005 .00489897948556636 1 .499999974076138 141 724 519 727
 727 522 134 725 0 0 0 0 0 0 +728 729 136 728 1 2 2 2 5 FFF1 730 731 732 135 729
 2 0 45 4 730 -.001390378717985098 -.00863905147779452 -.00121800336416587 -.008
66635065671675 127 2 731 2 2 128 2 732 0 1 141 727 517 724 724 522 137 726 858 0
 1 518 519 733 -537 734 0 ?133 518 859 0 516 536 726 0 +726 .00495132771267986 .
000695863729625086 .00489897948556636 .0395075336238055 .00625737860160924 .0048
9897948556636 1 0 141 733 518 733 733 726 134 734 0 0 0 0 0 0 +735 736 136 735 1
 2 2 2 5 FFF1 737 738 739 135 736 2 0 45 4 737 .004171136153988115 .025917154433
34425 -.001390378717996038 -.00863905147778141 127 2 738 2 2 128 2 739 0 1 134 5
36 860 0 1 533 518 740 +741 742 141 740 533 740 740 536 136 741 2 7 4 4 5 FFT8 7
43 744 745 135 742 2 746 184 746 0 0 .001898979485566355 0 0 1 .0282842712474619
 -.0282842712474619 .001898979485566355 +0 .149999999999851 .02 1e-6 45 28 743 .
0282842712474619 -.0282842712474619 .001898979485566355 1 .0323606797749979 -.02
351141009169895 .00236944406722081 .987688340595138 .0356402609675347 -.01815961
998958185 .002898979485566355 1 .03804226065180615 -.0123606797749979 .003357132
40781595 .987688340595138 .0395075336238055 -.00625737860160924 .003898979485566
355 1 .04 -3426732302757925e-33 .00434482074841109 .987688340595138 .03950753362
38055 .00625737860160924 .00489897948556636 1 127 4 744 3 2 2 3 128 4 745 0 .05
 .1 .15 17 470 0 469 525 467 93 472 711 530 516 -16 711 792 0 1e-6 472 527 526 0
 0 0 1 133 530 865 0 470 140 528 0 +528 .0049240285337448 .000868239083453508 .0
0489897948556636 .0395075336238055 .00625737860160924 .00489897948556636 1 0 137
 140 1034 0 1 134 530 747 +159 748 0 ?141 747 134 747 747 140 134 748 0 0 0 0 0
 0 +749 750 136 749 1 2 2 2 5 FFF1 751 752 753 135 750 1 0 45 4 751 .99999963550
3535 .15 .999999635503535 0 127 2 752 2 2 128 2 753 0 1 17 116 0 107 109 98 37 5
11 527 0 0 +17 511 0 510 95 509 96 116 527 0 0 -16 133 998 0 5e-8 25 501 135 0 0
 0 1 14 173 805 754 ?524 323 469 4 160 -0 0 524 323 20 81 1 754 1396 245 173 755
 0 594 756 757 80 255 1 245 758 759 9000 1 1 1 1 1 1 1 1 0 FFFFTFTFFFFFFF1 81 1
 755 1311 760 173 0 754 761 762 763 81 1 594 1395 245 339 764 0 590 754 765 81 1
 756 1397 245 219 766 0 754 767 768 82 255 1 757 1206518186 14 219 817 756 ?124
 524 515 4 537 -0 0 124 524 20 81 1 766 1313 760 219 0 756 762 769 770 81 1 767
 1398 245 132 771 0 756 772 773 82 1 768 1168310698 14 132 1010 767 ?158 124 129
 4 159 -0 0 158 124 20 81 1 771 1315 760 132 0 767 769 774 775 81 1 772 1399 245
 113 776 0 767 777 778 82 1 773 1312227754 14 113 936 772 ?259 253 779 4 260 +0
 0 259 253 20 81 1 776 1301 760 113 0 772 780 781 782 81 1 777 1400 245 267 783
 0 772 0 784 82 1 778 1314718123 14 267 394 777 ?339 14 634 4 340 -0 0 339 14 20
 81 1 783 1305 760 267 0 777 785 764 786 82 1 784 958202281 80 1 760 0 787 8001
 0 0 0 0 3 5 0 0 0 FFFFTFTFFFFFFF2 81 1 785 1304 760 14 0 265 264 783 788 81 1 7
64 1306 760 339 0 594 783 593 789 83 255 3 786 .752941176470588 .752941176470588
 .752941176470588 81 1 593 1307 760 579 0 590 764 586 790 83 3 789 .752941176470
588 .752941176470588 .752941176470588 81 1 586 1308 760 296 0 578 593 791 792 83
 3 790 .752941176470588 .752941176470588 .752941176470588 81 1 791 1309 760 333
 0 587 586 761 793 83 3 792 .752941176470588 .752941176470588 .752941176470588 8
1 1 587 1393 245 333 791 0 578 590 794 81 1 761 1310 760 323 0 332 791 755 795 8
3 3 793 .752941176470588 .752941176470588 .752941176470588 81 1 332 1390 245 323
 761 0 269 546 796 83 3 795 .752941176470588 .752941176470588 .752941176470588 8
1 1 269 1389 245 259 781 0 265 332 797 81 1 546 1391 245 524 762 0 332 578 798 8
2 1 796 1057030570 81 1 762 1312 760 524 0 546 755 766 799 82 1 798 1201865130 8
3 3 799 .752941176470588 .752941176470588 .752941176470588 81 1 781 1302 760 259
 0 269 776 264 800 81 1 265 1388 245 14 785 0 262 269 801 82 1 797 1205404074 82
 1 801 -204340822 81 1 264 1303 760 254 0 262 781 785 802 83 3 800 .752941176470
588 .752941176470588 .752941176470588 83 3 802 .752941176470588 .752941176470588
 .752941176470588 82 1 794 1090585002 83 3 788 .752941176470588 .752941176470588
 .752941176470588 79 255 15 787 SDL/TYSA_COLOUR81 1 780 1300 760 253 0 256 255 7
76 803 83 3 782 .752941176470588 .752941176470588 .752941176470588 81 1 256 1386
 245 253 780 0 252 262 804 81 1 255 1299 760 12 0 252 0 780 805 83 3 803 .752941
176470588 .752941176470588 .752941176470588 83 3 805 .752941176470588 .752941176
470588 .752941176470588 82 1 804 1315897770 15 779 1148 0 806 113 107 17 806 0 7
79 806 806 0 807 808 0 0 -17 807 0 809 807 807 0 806 808 0 0 +16 808 1156 0 ?807
 810 811 208 0 0 1 16 810 1157 0 ?812 121 808 813 0 0 1 16 811 1212 0 ?814 808 8
15 816 0 0 1 31 208 1182 0 808 813 127 0 +0 0 .001898979485566355 0 0 -1 -1 0 0
 .004 31 813 1183 0 810 817 208 0 +0 0 .00447213595499958 0 0 -1 -1 0 0 .004 31
 817 1247 0 815 816 813 0 +0 0 -.0001010205144336434 0 0 -1 -1 0 0 .0015 16 815
 1216 0 ?818 811 819 817 0 0 1 31 816 1248 0 811 820 817 0 +0 0 -.00010102051443
36434 0 0 -1 -1 0 0 .0025 31 820 1249 0 819 0 816 0 +0 0 .00545435605731786 0 0
 -1 -1 0 0 .0025 16 819 1215 0 ?821 815 0 820 0 0 1 17 821 0 822 821 821 0 823 8
19 0 0 +15 822 1234 0 821 238 0 17 823 0 230 823 823 0 821 819 0 0 -15 230 1205
 0 823 220 824 15 824 1176 0 812 220 0 17 812 0 824 812 812 0 825 810 0 0 +17 82
5 0 235 825 825 0 812 810 0 0 -15 235 1171 0 825 168 809 15 809 1172 0 807 168 0
 17 818 0 239 818 818 0 249 815 0 0 +15 239 1238 0 818 232 826 17 249 0 244 249
 249 0 818 815 0 0 -15 826 1239 0 21 232 0 17 21 0 826 21 21 0 827 9 0 0 +17 827
 0 251 827 827 0 21 9 0 0 -15 251 1200 0 827 231 0 17 814 0 250 814 814 0 828 81
1 0 0 +15 250 1229 0 814 229 0 17 828 0 242 828 828 0 814 811 0 0 -15 242 1233 0
 828 238 822 16 121 995 0 1e-6 151 111 810 0 0 0 1 17 151 0 150 148 125 99 36 12
1 153 0 +15 150 1021 0 128 158 0 17 125 0 150 151 128 34 123 126 144 0 +81 1 769
 1314 760 124 0 218 766 771 829 81 1 774 1316 760 158 0 167 771 830 831 83 3 775
 .752941176470588 .752941176470588 .752941176470588 81 1 167 1377 245 158 774 0
 0 218 832 81 1 830 1317 760 168 0 234 774 833 834 83 3 831 .752941176470588 .75
2941176470588 .752941176470588 81 1 234 1380 245 168 830 0 228 237 835 81 1 833
 1318 760 220 0 228 830 246 836 83 3 834 .752941176470588 .752941176470588 .7529
41176470588 81 1 228 1379 245 220 833 0 218 234 837 81 1 246 1319 760 229 0 243
 833 838 839 83 3 836 .752941176470588 .752941176470588 .752941176470588 81 1 83
8 1320 760 238 0 241 246 840 841 83 3 839 .752941176470588 .752941176470588 .752
941176470588 81 1 241 1382 245 238 838 0 237 243 842 81 1 840 1321 760 232 0 237
 838 843 844 83 3 841 .752941176470588 .752941176470588 .752941176470588 81 1 23
7 1381 245 232 840 0 234 241 845 81 1 843 1322 760 231 0 247 840 0 846 83 3 844
 .752941176470588 .752941176470588 .752941176470588 81 1 247 1384 245 231 843 0
 243 252 847 83 3 846 .752941176470588 .752941176470588 .752941176470588 82 1 84
7 1510932910 82 1 845 1503134126 82 1 842 1499988398 81 1 218 1378 245 124 769 0
 167 228 848 82 1 837 1336279470 82 1 848 1317011882 82 1 835 1336345003 82 1 83
2 1278673322 83 3 829 .752941176470588 .752941176470588 .752941176470588 83 3 77
0 .752941176470588 .752941176470588 .752941176470588 82 1 765 957546921 83 3 763
 .752941176470588 .752941176470588 .752941176470588 79 14 759 SWEntUnchanged15 2
70 745 0 40 259 0 17 40 0 270 55 414 38 467 284 0 419 -17 414 0 270 40 57 46 365
 411 0 467 +17 365 0 268 83 48 53 414 411 0 307 -141 639 638 639 639 636 134 640
 0 0 0 0 0 0 +849 850 136 849 1 2 2 2 5 FFF1 851 852 853 135 850 2 0 45 4 851 1
 .15 0 .15 127 2 852 2 2 128 2 853 0 1 141 625 611 625 625 609 134 626 0 0 0 0 0
 0 +854 855 136 854 1 2 2 2 5 FFF1 856 857 858 135 855 2 0 45 4 856 .00121800336
4167616 .00866635065671648 -.004171136153988115 -.02591715443334425 127 2 857 2
 2 128 2 858 0 1 141 607 605 607 607 602 134 608 0 0 0 0 0 0 +859 860 136 859 1
 2 2 2 5 FFF1 861 862 863 135 860 2 0 45 4 861 -.004171136153988115 -.0259171544
3334425 .001390378717996038 .00863905147778141 127 2 862 2 2 128 2 863 0 1 141 5
99 636 599 599 340 126 600 FF1 2 2 7 5 5 2 4 TFF12 4 864 865 866 867 868 125 601
 0 1 0 .15 0 1 0 .15 2 BBBBBBBBH???869 0 0 0 163 869 0 0 .001898979485566355 0 0
 1 +0 .1500000000000105 .02 ?1e-6 45 56 864 -.0282842712474619 .0282842712474619
 .001898979485566355 1 -.0323606797749979 .02351141009169895 .00236944406722081
 .987688340595138 -.0356402609675347 .01815961998958185 .002898979485566355 1 -.
03804226065180615 .0123606797749979 .00335713240781595 .987688340595138 -.039507
5336238055 .00625737860160924 .003898979485566355 1 -.04 3426732302757925e-33 .0
0434482074841109 .987688340595138 -.0395075336238055 -.00625737860160924 .004898
97948556636 1 -.003473282991816075 .003596689826398785 .001898979485566355 1 -.0
0399316736351247 .00300906743951315 .00236944406722081 .987688340595138 -.004414
72670215651 .00234735182574442 .002898979485566355 1 -.00472758081775554 .001627
836619611795 .00335713240781595 .987688340595138 -.00492402620368025 .0008682386
73424327 .003898979485566355 1 -.00499922572256429 872618095781997e-19 .00434482
074841109 .987688340595138 -.00495132771267986 -.000695863729625086 .00489897948
556636 1 127 2 865 2 2 127 5 866 3 2 2 3 0 128 2 867 0 1 128 5 868 0 .05 .1 .15
 ?82 1 595 915734953 82 1 588 1095106986 16 301 593 0 1e-6 283 312 297 0 0 0 1 1
41 547 726 870 871 537 141 870 714 871 547 537 141 871 522 547 870 537 141 531 5
30 531 531 528 134 532 0 0 0 0 0 0 +872 873 136 872 1 2 2 2 5 FFF1 874 875 876 1
35 873 2 0 45 4 874 1 .15 0 .15 127 2 875 2 2 128 2 876 0 1 17 30 0 258 43 399 1
8 119 22 0 109 -16 117 719 0 ?109 294 28 393 0 0 1 141 423 422 423 423 420 141 4
16 415 416 416 412 136 417 2 7 4 4 5 FFT8 877 878 879 135 418 2 880 184 880 0 0
 .001898979485566355 0 0 1 -.00347329203533358 .00359669882493493 .0018989794855
66355 +0 .1500000000000105 .02 1e-6 45 28 877 -.00347329203533358 .0035966988249
3493 .001898979485566355 1 -.003993177703370455 .00300907491254456 .002369444067
22081 .987688340595138 -.004414738083753355 .002347357589260265 .002898979485566
355 1 -.00472759296083857 .00162784053169518 .00335713240781595 .987688340595138
 -.00492403880924644 .000868240637746779 .003898979485566355 1 -.004999238480222
78 872617777715786e-19 .00434482074841109 .987688340595138 -.00495134030829475 -
.000695865756777595 .00489897948556636 1 127 4 878 3 2 2 3 128 4 879 0 .05 .1 .1
5 141 370 369 370 370 367 134 371 0 0 0 0 0 0 +881 882 136 881 1 2 2 2 5 FFF1 88
3 884 885 135 882 1 0 45 4 883 1.71042271784516 .003 .767944921768221 0 127 2 88
4 2 2 128 2 885 0 1 141 349 347 349 349 344 134 350 0 0 0 0 0 0 +886 887 136 886
 1 2 2 2 5 FFF1 888 889 890 135 887 2 0 45 4 888 .00417113615398802 .02591715443
334425 -.001390378717996006 -.00863905147778142 127 2 889 2 2 128 2 890 0 1 141
 341 648 341 341 325 126 342 FF1 2 2 7 5 5 2 4 TFF12 4 891 892 893 894 895 125 3
43 0 1 0 .15 0 1 0 .15 2 BBBBBBBBH???896 0 0 0 163 896 0 0 .001898979485566355 0
 0 1 +0 .149999999999851 .02 ?1e-6 45 56 891 -.00359669152769694 .00347328463586
879 .001898979485566355 1 -.00409575171056817 .00286787622336583 .00236944406722
081 .987688340595138 -.0044939608933046 .002191851180308105 .002898979485566355
 1 -.00478151384424676 .001461855486854184 .00335713240781595 .987688340595138 -
.00495133005540892 .000695864059693706 .003898979485566355 1 -.00499922808808458
 -872618500568387e-19 .00434482074841109 .987688340595138 -.0049240285337448 -.0
00868239083453508 .00489897948556636 1 -.0282842712474619 .0282842712474619 .001
898979485566355 1 -.0323606797749979 .02351141009169895 .00236944406722081 .9876
88340595138 -.0356402609675347 .01815961998958185 .002898979485566355 1 -.038042
26065180615 .0123606797749979 .00335713240781595 .987688340595138 -.039507533623
8055 .00625737860160924 .003898979485566355 1 -.04 3426732302757925e-33 .0043448
2074841109 .987688340595138 -.0395075336238055 -.00625737860160924 .004898979485
56636 1 127 2 892 2 2 127 5 893 3 2 2 3 0 128 2 894 0 1 128 5 895 0 .05 .1 .15 ?
141 336 569 897 897 324 126 337 FF1 2 2 7 5 5 2 4 TFF12 4 898 899 900 901 902 12
5 338 0 1 0 .15 0 1 0 .15 2 BBBBBBBBH???903 0 0 0 163 903 0 0 .00189897948556635
5 0 0 1 +0 .1500000000000105 .02 ?1e-6 45 56 898 .028284271247462 .0282842712474
618 .001898979485566355 1 .02351141009169905 .0323606797749978 .0023694440672208
1 .987688340595138 .018159619989582 .03564026096753465 .002898979485566355 1 .01
236067977499802 .0380422606518061 .00335713240781595 .987688340595138 .006257378
60160937 .0395075336238055 .003898979485566355 1 140496024413075e-30 .04 .004344
82074841109 .987688340595138 -.0062573786016091 .03950753362380555 .004898979485
56636 1 .003596689826398795 .003473282991816065 .001898979485566355 1 .003009067
43951316 .00399316736351246 .00236944406722081 .987688340595138 .002347351825744
43 .0044147267021565 .002898979485566355 1 .00162783661961181 .00472758081775554
 .00335713240781595 .987688340595138 .000868238673424342 .00492402620368024 .003
898979485566355 1 872618095782147e-19 .00499922572256429 .00434482074841109 .987
688340595138 -.000695863729625071 .00495132771267987 .00489897948556636 1 127 2
 899 2 2 127 5 900 3 2 2 3 0 128 2 901 0 1 128 5 902 0 .05 .1 .15 ?141 897 316 3
36 336 324 82 1 266 1093992874 141 261 367 904 905 15 141 904 431 905 261 15 141
 905 495 261 904 15 82 1 257 1316356522 82 1 248 1478361518 141 175 528 175 175
 160 126 176 FF1 2 2 7 5 5 2 4 TFF12 4 906 907 908 909 910 125 177 0 1 0 .15 0 1
 0 .15 2 BBBBBBBBH???911 0 0 0 163 911 0 0 .001898979485566355 0 0 1 +0 .1499999
99999851 .02 ?1e-6 45 56 906 .00359669152769694 -.00347328463586879 .00189897948
5566355 1 .00409575171056817 -.00286787622336583 .00236944406722081 .98768834059
5138 .0044939608933046 -.002191851180308105 .002898979485566355 1 .0047815138442
4676 -.001461855486854184 .00335713240781595 .987688340595138 .00495133005540892
 -.000695864059693706 .003898979485566355 1 .00499922808808458 872618500568387e-
19 .00434482074841109 .987688340595138 .0049240285337448 .000868239083453508 .00
489897948556636 1 .0282842712474619 -.0282842712474619 .001898979485566355 1 .03
23606797749979 -.02351141009169895 .00236944406722081 .987688340595138 .03564026
09675347 -.01815961998958185 .002898979485566355 1 .03804226065180615 -.01236067
97749979 .00335713240781595 .987688340595138 .0395075336238055 -.006257378601609
24 .003898979485566355 1 .04 -3426732302757925e-33 .00434482074841109 .987688340
595138 .0395075336238055 .00625737860160924 .00489897948556636 1 127 2 907 2 2 1
27 5 908 3 2 2 3 0 128 2 909 0 1 128 5 910 0 .05 .1 .15 ?141 170 192 912 912 159
 126 171 FF1 2 2 7 5 5 2 4 TFF12 4 913 914 915 916 917 125 172 0 1 0 .15 0 1 0 .
15 2 BBBBBBBBH???918 0 0 0 163 918 0 0 .001898979485566355 0 0 1 +0 .15000000000
00105 .02 ?1e-6 45 56 913 -.0282842712474622 -.0282842712474616 .001898979485566
355 1 -.02351141009169925 -.03236067977499765 .00236944406722081 .98768834059513
8 -.01815961998958225 -.03564026096753455 .002898979485566355 1 -.01236067977499
83 -.038042260651806 .00335713240781595 .987688340595138 -.00625737860160965 -.0
3950753362380545 .003898979485566355 1 -4180613409364665e-31 -.04 .0043448207484
1109 .987688340595138 .00625737860160883 -.0395075336238056 .00489897948556636 1
 -.00359668982639882 -.00347328299181604 .001898979485566355 1 -.003009067439513
19 -.00399316736351244 .00236944406722081 .987688340595138 -.002347351825744465
 -.004414726702156485 .002898979485566355 1 -.001627836619611845 -.0047275808177
5553 .00335713240781595 .987688340595138 -.000868238673424376 -.0049240262036802
4 .003898979485566355 1 -87261809578249e-18 -.00499922572256429 .004344820748411
09 .987688340595138 .000695863729625038 -.00495132771267987 .00489897948556636 1
 127 2 914 2 2 127 5 915 3 2 2 3 0 128 2 916 0 1 128 5 917 0 .05 .1 .15 ?141 912
 140 170 170 159 141 157 142 154 154 149 141 145 144 145 145 141 134 147 0 0 0 0
 0 0 +919 920 136 919 1 2 2 2 5 FFF1 921 922 923 135 920 2 0 45 4 921 .001218003
364167528 .00866635065671649 -.004171136153987835 -.0259171544333443 127 2 922 2
 2 128 2 923 0 1 141 139 122 139 139 137 19 13 30 0 1 0 8 4 S0 141 16 665 924 92
5 5 141 924 446 926 16 5 141 925 657 16 927 5 141 927 368 925 928 5 141 928 374
 927 929 5 141 929 484 928 930 5 141 930 473 929 926 5 141 926 436 930 924 5 74
 4 CI16 index_map_offset0 0 1 dCCZ20 11 2 0 0 777 843 0 0 0 0 0 0 0 0 0 0 0 0 0
 0 0 0 0 0 1 0 
