**ABCDEFGHIJKLMNOPQRSTUVWXYZabcdefghijklmnopqrstuvwxyz**************************
**PARASOLID !"#$%&'()*+,-./:;<=>?@[\]^_`{|}~0123456789**************************
**PART1;
MC=AMD64;
MC_MODEL=Intel64 Family 6 Model 58 Stepping 9, GenuineIntel;
MC_ID=unknown;
OS=Windows_NT;
OS_RELEASE=unknown;
FRU=Parasolid Version 27.0, build 207,  1-23-2015;
APPL=SOLIDWORKS 2015-2015109;
SITE=;
USER=unknown;
FORMAT=text;
GUISE=transmit;
KEY=rocker;
FILE=rocker.x_t;
DATE=Thu Mar 08 09:26:13 2018;
**PART2;
SCH=SCH_2700207_26105;
USFLD_SIZE=0;
**PART3;
**END_OF_HEADER*****************************************************************
T51 : TRANSMIT FILE created by modeller version 270020723 SCH_2700207_26105_1300
6196 0 10 255 1 5 2 3 0 0 0 0 0 1e3 1e-8 0 0 0 1 0 1 4 81 255 1 2 5 5 1 0 0 0 0
 0 70 11 CI9 list_type0 0 1 uI10 notransmit0 0 1 lCCCDCCDI12 finger_index0 0 1 d
I12 finger_block1012 0 CZ3 0 4 T1 0 0 1 20 1 6 6 11 255 4 3 0 1 7 8 1 9 0 0 0 12
 30 CCCCCCCCCCCCCDI5 owner1040 0 CCCCCCCCCA13 boundary_mesh1006 0 A16 index_map_
offset0 0 1 dA9 index_map82 0 A17 node_id_index_map82 0 A20 schema_embedding_map
82 0 A5 child12 0 A14 lowest_node_id0 0 1 dZ7 251 10 11 0 0 0 0 1e3 1e-8 4 12 0
 1 0 1 1 13 14 15 16 17 18 19 0 0 0 0 0 0 0 100 255 8 4 4 0 0 -3973038505431595e
-31 -450134554735704e-30 1 .02745322828635605 -.999623089097414 -439057620806384
e-30 .999623089097414 .02745322828635605 4095117490809875e-31 .3002669605745305
 .548696685213313 .504749214039536 1 3 ?11 9 1 0 1 12 20 1 0 4 0 0 12 12 720 21
 22 0 0 0 0 1e3 1e-8 9 23 7 1 0 1 1 24 25 26 27 28 29 30 0 0 0 0 0 0 0 100 20 2
 9 0 0 1 -274013002483056e-30 575188825123217e-31 272330644982583e-30 .999623089
097414 .02745322828635595 -650197445289954e-31 -.02745322828635595 .999623089097
414 .393909756371194 .550590367343712 .50085052431438 1 3 ?81 1 21 720 5 12 0 0
 0 0 31 70 22 0 4 T12 0 0 3 20 1 32 32 13 255 24 289 0 12 0 33 0 0 34 0 50 255 2
5 288 0 35 36 0 0 +-.0916427957814494 212526125699924e-30 -.001 1 -2319070734231
615e-30 0 2319070734231615e-30 1 0 30 255 26 277 0 37 38 0 0 +-.0916427957814487
 .3012101017654515 -.001 0 0 1 29 255 27 89 0 30 39 0 -.1257801894826944 .002 -.
001 19 8 CCCCCCCA5 owner12 0 Z28 92 0 12 34 0 40 V0 16 255 29 230 0 ?41 0 42 43
 0 0 12 18 255 30 87 0 44 0 45 27 ?12 17 255 44 0 46 41 47 30 48 49 0 50 -18 45
 84 0 48 30 51 39 ?12 17 48 0 52 53 50 45 44 49 0 47 +18 51 81 0 53 45 54 55 ?12
 29 39 86 0 45 55 27 -.0936427957966586 .002 -.001 29 55 83 0 51 56 39 -.0936427
957966585 .301219619946497 -.001 29 56 80 0 54 57 55 -.241933150332446 .27486767
6323601 -.001 18 54 78 0 58 51 59 56 ?12 29 57 77 0 59 60 56 .0553975007979085 .
2760321539241395 -.001 18 59 75 0 61 54 62 57 ?12 29 60 74 0 62 63 57 -.06210249
92020916 0 -.001 18 62 72 0 64 59 65 60 ?12 29 63 71 0 65 66 60 -.12710249920209
16 676953118422989e-38 -.001 18 65 69 0 67 62 68 63 ?12 29 66 68 0 68 69 63 -.24
46024992020915 .27603215392414 -.001 18 68 66 0 70 65 71 66 ?12 29 69 65 0 71 72
 66 -.0916427957814494 .002 -.001 18 71 63 0 73 68 74 69 ?12 29 72 62 0 74 75 69
 -.0634248089214886 .002 -.001 18 74 60 0 76 71 77 72 ?12 29 75 59 0 77 78 72 .0
527281519282626 .2748676763236015 -.001 18 77 57 0 79 74 80 75 ?12 29 78 56 0 80
 81 75 -.0916427957814487 .3012101017654515 -.001 18 80 54 0 82 77 83 78 ?12 29
 81 571 0 83 84 78 -.1257801894826944 .002 .001 18 83 442 0 41 80 85 81 ?12 29 8
4 572 0 85 86 81 -.0936427957966586 .002 .001 18 85 429 0 87 83 88 84 ?12 29 86
 573 0 88 89 84 -.0936427957966585 .301219619946497 .001 18 88 446 0 90 85 91 86
 ?12 29 89 574 0 91 92 86 -.241933150332446 .274867676323601 .001 18 91 426 0 93
 88 94 89 ?12 29 92 575 0 94 95 89 .0553975007979085 .2760321539241395 .001 18 9
4 445 0 96 91 97 92 ?12 29 95 576 0 97 98 92 -.0621024992020916 0 .001 18 97 439
 0 99 94 100 95 ?12 29 98 577 0 100 101 95 -.1271024992020916 676953118422989e-3
8 .001 18 100 434 0 102 97 103 98 ?12 29 101 578 0 103 104 98 -.2446024992020915
 .27603215392414 .001 18 103 431 0 105 100 106 101 ?12 29 104 579 0 106 107 101
 -.0916427957814494 .002 .001 18 106 440 0 108 103 109 104 ?12 29 107 580 0 109
 110 104 -.0634248089214886 .002 .001 18 109 437 0 111 106 112 107 ?12 29 110 58
1 0 112 113 107 .0527281519282626 .2748676763236015 .001 18 112 444 0 114 109 11
5 110 ?12 29 113 582 0 115 0 110 -.0916427957814487 .3012101017654515 .001 18 11
5 436 0 116 112 0 113 ?12 17 116 0 117 118 119 115 82 37 0 120 +15 255 117 264 0
 116 35 0 17 118 0 117 73 116 106 121 122 0 123 -17 119 0 117 116 73 80 124 125
 0 0 +17 82 0 126 127 120 80 116 37 0 128 -16 37 241 0 ?116 129 49 26 0 0 12 17
 120 0 126 82 114 115 130 131 0 121 -15 126 262 0 114 132 0 17 114 0 126 120 127
 112 133 129 0 130 +17 130 0 134 135 121 112 120 131 0 136 +16 131 382 0 ?130 13
7 122 138 139 139 12 17 121 0 134 130 123 115 118 122 0 0 +15 134 501 0 121 140
 141 17 123 0 134 121 135 106 142 143 0 0 -16 122 378 0 ?121 131 0 144 0 0 12 30
 144 558 0 122 0 138 0 +-.0916427957814494 212526125699924e-30 .001 231907073423
1615e-30 1 0 134 255 138 557 0 131 144 145 0 +146 147 30 145 556 0 137 138 148 0
 +-.0544160176770428 .0231635408634666 .001 .3916666666666665 .920107179747133 0
 136 255 146 3 17 3 15 6 FFF1 149 150 151 135 255 147 2 0 45 255 51 149 -.241933
150332446 .274867676323601 .001 -.2388730348071855 .2759622526515395 .001 -.2327
155608235065 .27809607292276 .001 -.220440945988357 .2820747173726525 .001 -.205
0860517239105 .2865374473751905 .001 -.1866686616602295 .291066353535632 .001 -.
1621132944768845 .2960069518963585 .001 -.1314247614061252 .3001231691783395 .00
1 -.0946024992020917 .301769522851642 .001 -.0577802369980581 .3001231691783395
 .001 -.027091703927299 .2960069518963585 .001 -.002536336743953975 .29106635353
5632 .001 .01588105331972705 .2865374473751905 .001 .03123594758417405 .28207471
7372653 .001 .04351056241932295 .27809607292276 .001 .0496680364030024 .27596225
26515395 .001 .0527281519282626 .2748676763236015 .001 127 255 15 150 4 1 1 1 1
 1 1 1 1 1 1 1 1 1 4 128 255 15 151 .00665253462559527 .03748675121149555 .06832
09677973959 .1299894009691964 .191657834140997 .2533262673127975 .37666313365639
9 .5 .623336866343601 .746673732687202 .808342165859003 .870010599030804 .931679
032202604 .962513248788504 .993347465374405 16 137 358 0 ?136 143 131 145 0 0 12
 30 148 555 0 143 145 152 0 +614758056478597e-34 .002 .001 1 -3073790282392985e-
32 0 16 143 368 0 ?142 153 137 148 0 0 12 134 152 554 0 153 148 154 0 +155 156 1
6 153 333 0 ?157 158 143 152 0 0 12 30 154 553 0 158 152 159 0 +-.10760462276199
3 -.0458046028145291 .001 .3916666666666665 -.920107179747133 0 136 155 2 3 3 2
 5 FFF1 160 161 162 135 156 2 0 45 9 160 -.2446024992020915 .27603215392414 .001
 -.0946024992020917 .3304093226636095 .001 .0553975007979084 .27603215392414 .00
1 127 2 161 3 3 128 2 162 0 1 16 158 386 0 ?163 164 153 154 0 0 12 30 159 552 0
 164 154 165 0 +-67359607981665e-59 -646776623026417e-38 .001 1 -104146633603536
8e-37 0 16 164 390 0 ?166 167 158 159 0 0 12 30 165 551 0 167 159 168 0 +-.05257
58033175485 .0223802075301333 .001 .391666666666667 .920107179747133 0 16 167 39
4 0 ?169 170 164 165 0 0 12 30 168 550 0 170 165 171 0 +-.1057644084024986 -.045
0212694811957 .001 .3916666666666665 -.920107179747133 0 16 170 318 0 ?172 139 1
67 168 0 0 12 30 171 549 0 173 168 174 0 +-.0936427957966586 17372588736379e-30
 .001 185519757164265e-30 1 0 16 173 328 0 ?175 176 139 171 0 0 12 30 174 548 0
 176 171 177 0 +1079566994712806e-34 .002 .001 1 -539783497356404e-31 0 16 176 3
73 0 ?178 125 173 174 0 0 12 30 177 8 0 125 174 179 0 +-.0916427957814494 212526
125699924e-30 -.001 2319070734231615e-30 1 0 16 125 7 0 ?119 180 176 177 0 0 12
 134 179 12 0 180 177 181 182 +183 184 16 180 11 0 ?127 185 125 179 186 186 12 3
0 181 16 0 185 179 187 0 +-.0544160176770428 .0231635408634666 -.001 .3916666666
666665 .920107179747133 0 141 255 182 188 182 182 179 136 183 3 17 3 15 6 FFF1 1
89 190 191 135 184 2 0 45 51 189 -.241933150332446 .274867676323601 -.001 -.2388
730348071855 .2759622526515395 -.001 -.2327155608235065 .27809607292276 -.001 -.
220440945988357 .2820747173726525 -.001 -.2050860517239105 .2865374473751905 -.0
01 -.1866686616602295 .291066353535632 -.001 -.1621132944768845 .296006951896358
5 -.001 -.1314247614061252 .3001231691783395 -.001 -.0946024992020917 .301769522
851642 -.001 -.0577802369980581 .3001231691783395 -.001 -.027091703927299 .29600
69518963585 -.001 -.002536336743953975 .291066353535632 -.001 .01588105331972705
 .2865374473751905 -.001 .03123594758417405 .282074717372653 -.001 .043510562419
32295 .27809607292276 -.001 .0496680364030024 .2759622526515395 -.001 .052728151
9282626 .2748676763236015 -.001 127 15 190 4 1 1 1 1 1 1 1 1 1 1 1 1 1 4 128 15
 191 .00665253462559527 .03748675121149555 .0683209677973959 .1299894009691964 .
191657834140997 .2533262673127975 .376663133656399 .5 .623336866343601 .74667373
2687202 .808342165859003 .870010599030804 .931679032202604 .962513248788504 .993
347465374405 67 255 188 280 0 192 193 194 0 +179 0 0 1 .413015079997249 14 255 1
92 247 195 ?196 132 197 24 188 +132 132 196 132 40 50 193 279 0 198 199 188 0 +-
.0936427957966586 17372588736379e-30 -.001 1 -185519757164265e-30 0 185519757164
265e-30 1 0 50 194 281 0 33 188 200 0 +-.1057644084024986 -.0450212694811957 -.0
01 -.920107179747133 -.3916666666666665 0 .3916666666666665 -.920107179747133 0
 14 33 249 201 ?202 0 203 24 194 -0 0 202 0 40 50 200 282 0 204 194 205 0 +-.052
5758033175485 .0223802075301333 -.001 .920107179747133 -.391666666666667 0 .3916
66666666667 .920107179747133 0 14 204 251 206 ?207 208 209 24 200 +0 0 207 208 4
0 50 205 283 0 207 200 210 0 +-67359607981665e-59 -646776623026417e-38 -.001 -10
41466336035368e-37 -1 0 1 -1041466336035368e-37 0 14 207 253 211 ?35 204 212 24
 205 +0 0 35 204 40 50 210 284 0 213 205 214 0 +-.107604622761993 -.045804602814
5291 -.001 -.920107179747133 -.3916666666666665 0 .3916666666666665 -.9201071797
47133 0 14 213 255 215 ?132 216 217 24 210 +0 0 132 216 40 67 214 285 0 208 210
 218 0 +219 0 0 1 .4137766000249375 14 208 257 220 ?204 198 221 24 214 -0 0 204
 198 40 50 218 286 0 222 214 36 0 +614758056478597e-34 .002 -.001 -3073790282392
985e-32 -1 0 1 -3073790282392985e-32 0 134 219 24 0 223 187 224 225 +226 227 16
 223 23 0 ?61 228 229 219 0 0 12 30 187 20 0 229 181 219 0 +614758056478597e-34
 .002 -.001 1 -3073790282392985e-32 0 30 224 28 0 228 219 230 0 +-.1076046227619
93 -.0458046028145291 -.001 .3916666666666665 -.920107179747133 0 141 225 214 22
5 225 219 136 226 2 3 3 2 5 FFF1 231 232 233 135 227 2 0 45 9 231 -.244602499202
0915 .27603215392414 -.001 -.0946024992020917 .3304093226636095 -.001 .055397500
7979084 .27603215392414 -.001 127 2 232 3 3 128 2 233 0 1 16 228 27 0 ?234 235 2
23 224 0 0 12 30 230 32 0 235 224 236 0 +-67359607981665e-59 -646776623026417e-3
8 -.001 1 -1041466336035368e-37 0 16 235 31 0 ?237 238 228 230 0 0 12 30 236 36
 0 238 230 239 0 +-.0525758033175485 .0223802075301333 -.001 .391666666666667 .9
20107179747133 0 16 238 35 0 ?240 241 235 236 0 0 12 30 239 40 0 241 236 242 0 +
-.1057644084024986 -.0450212694811957 -.001 .3916666666666665 -.920107179747133
 0 16 241 39 0 ?50 186 238 239 0 0 12 30 242 47 0 243 239 244 0 +-.0936427957966
586 17372588736379e-30 -.001 185519757164265e-30 1 0 16 243 46 0 ?53 49 186 242
 0 0 12 30 244 51 0 49 242 43 0 +1079566994712806e-34 .002 -.001 1 -539783497356
404e-31 0 16 49 50 0 ?48 37 243 244 0 0 12 30 43 266 0 29 244 245 0 +-.125780189
4826944 .002 -.001 0 0 1 30 245 267 0 42 43 246 0 +-.0936427957966586 .002 -.001
 0 0 1 16 42 231 0 ?87 29 247 245 0 0 12 30 246 268 0 247 245 248 0 +-.093642795
7966585 .301219619946497 -.001 0 0 1 16 247 232 0 ?90 42 249 246 0 0 12 30 248 2
69 0 249 246 250 0 +-.241933150332446 .274867676323601 -.001 0 0 1 16 249 233 0
 ?93 247 251 248 0 0 12 30 250 270 0 251 248 252 0 +.0553975007979085 .276032153
9241395 -.001 0 0 1 16 251 234 0 ?96 249 253 250 0 0 12 30 252 271 0 253 250 254
 0 +-.0621024992020916 0 -.001 0 0 1 16 253 235 0 ?99 251 255 252 0 0 12 30 254
 272 0 255 252 256 0 +-.1271024992020916 676953118422989e-38 -.001 0 0 1 16 255
 236 0 ?102 253 257 254 0 0 12 30 256 273 0 257 254 258 0 +-.2446024992020915 .2
7603215392414 -.001 0 0 1 16 257 237 0 ?105 255 259 256 0 0 12 30 258 274 0 259
 256 260 0 +-.0916427957814494 .002 -.001 0 0 1 16 259 238 0 ?108 257 261 258 0
 0 12 30 260 275 0 261 258 38 0 +-.0634248089214886 .002 -.001 0 0 1 16 261 239
 0 ?111 259 129 260 0 0 12 30 38 276 0 129 260 26 0 +.0527281519282626 .27486767
63236015 -.001 0 0 1 16 129 240 0 ?114 261 37 38 0 0 12 17 111 0 262 136 263 109
 264 261 0 135 +15 262 260 0 111 216 0 17 136 0 262 133 111 112 135 137 0 0 +17
 263 0 262 111 133 74 79 185 0 0 -17 264 0 265 266 142 74 111 261 0 263 -17 135
 0 134 123 130 109 136 137 0 142 -17 142 0 265 264 108 109 123 143 0 0 +15 265 2
58 0 108 222 0 17 108 0 265 142 266 106 73 259 0 118 +17 266 0 265 108 264 71 76
 229 0 124 -17 73 0 117 119 118 71 108 259 0 266 -17 76 0 267 79 124 74 266 229
 0 264 +16 229 19 0 ?76 223 185 187 0 0 12 17 124 0 267 76 128 71 119 125 0 0 -1
5 267 4 0 124 196 268 17 128 0 267 124 79 80 127 180 0 119 -17 79 0 267 128 76 7
7 263 185 0 133 +17 127 0 126 114 82 77 128 180 0 0 +16 185 15 0 ?79 229 180 181
 0 0 12 17 133 0 262 263 136 77 114 129 0 127 -14 196 1 269 ?140 192 267 24 270
 -0 0 140 192 40 15 268 5 0 61 196 52 17 61 0 268 271 272 59 273 223 0 274 +15 5
2 6 0 50 196 0 17 50 0 52 48 275 30 276 241 0 277 +17 275 0 52 50 53 54 278 186
 0 0 -17 276 0 203 93 277 54 50 241 0 275 -17 277 0 203 276 172 30 41 29 0 0 -15
 203 248 0 93 33 0 17 172 0 203 277 93 83 279 170 0 280 +17 41 0 46 178 44 83 27
7 29 0 172 +15 46 242 0 41 202 0 17 178 0 46 47 41 85 280 176 0 0 +17 47 0 46 44
 178 45 87 42 0 281 -17 280 0 282 279 283 83 178 176 0 0 -15 282 503 0 279 140 0
 17 279 0 282 284 280 91 172 170 0 0 -17 283 0 282 280 284 85 175 173 0 178 -17
 284 0 282 283 279 88 285 139 0 175 +17 175 0 286 287 87 88 283 173 0 0 +15 286
 244 0 87 198 0 17 287 0 286 281 175 51 90 247 0 278 -17 87 0 286 175 281 85 47
 42 0 283 +17 281 0 286 87 287 45 53 243 0 0 -17 53 0 52 275 48 51 281 243 0 287
 +17 90 0 197 285 278 88 287 247 0 284 +17 278 0 197 90 58 51 275 186 0 0 +15 19
7 246 0 90 192 0 17 58 0 197 278 285 54 93 249 0 276 -16 186 43 0 ?278 243 241 1
79 180 180 12 17 285 0 197 58 90 91 284 139 0 279 -17 93 0 203 172 276 91 58 249
 0 285 +16 139 398 0 ?284 173 170 138 131 131 12 14 198 245 288 ?208 202 286 24
 193 -0 0 208 202 40 81 1 288 708 289 198 290 0 291 220 292 14 202 243 291 ?198
 33 46 24 199 -0 0 198 33 40 13 40 93 0 0 0 0 0 0 28 33 81 1 291 707 289 202 293
 0 201 288 294 50 199 278 0 202 270 193 0 +1079566994712806e-34 .002 -.001 -5397
83497356404e-31 -1 0 1 -539783497356404e-31 0 50 270 2 0 196 295 199 0 +0 0 -.00
1 0 0 1 1 0 0 50 295 524 0 140 0 270 0 +0 0 .001 0 0 1 1 0 0 14 140 498 296 ?0 1
96 134 24 295 +0 0 0 196 40 81 1 296 719 289 140 297 0 269 0 298 80 255 1 289 0
 299 8001 0 0 0 0 3 5 0 0 0 FFFFTFTFFFFFFF2 81 1 297 693 300 140 0 296 293 301 3
02 81 1 269 718 289 196 303 0 195 296 304 83 255 3 298 .752941176470588 .7529411
76470588 .752941176470588 81 1 303 684 300 196 0 269 305 290 306 81 1 195 717 28
9 192 307 0 308 269 309 83 3 304 .752941176470588 .752941176470588 .752941176470
588 81 1 307 672 300 192 0 195 0 310 311 81 1 308 716 289 132 301 0 215 195 312
 83 3 309 .752941176470588 .752941176470588 .752941176470588 14 132 263 308 ?192
 213 126 24 188 +192 192 192 213 40 81 1 301 698 300 132 0 308 297 313 314 81 1
 215 715 289 213 315 0 316 308 317 83 3 312 .752941176470588 .752941176470588 .7
52941176470588 81 1 315 680 300 213 0 215 318 305 319 81 1 316 714 289 216 313 0
 320 215 321 83 3 317 .752941176470588 .752941176470588 .752941176470588 14 216
 261 316 ?213 222 262 24 36 -0 0 213 222 40 81 1 313 700 300 216 0 316 301 322 3
23 81 1 320 713 289 222 322 0 324 316 325 83 3 321 .752941176470588 .75294117647
0588 .752941176470588 14 222 259 320 ?216 35 265 24 218 -0 0 216 35 40 81 1 322
 702 300 222 0 320 313 326 327 81 1 324 712 289 35 326 0 211 320 328 83 3 325 .7
52941176470588 .752941176470588 .752941176470588 14 35 265 324 ?222 207 117 24 2
5 +0 0 222 207 40 81 1 326 704 300 35 0 324 322 0 329 81 1 211 711 289 207 318 0
 206 324 330 83 3 328 .752941176470588 .752941176470588 .752941176470588 81 1 31
8 678 300 207 0 211 331 315 332 81 1 206 710 289 204 331 0 220 211 333 83 3 330
 .752941176470588 .752941176470588 .752941176470588 81 1 331 676 300 204 0 206 3
10 318 334 81 1 220 709 289 208 305 0 288 206 335 83 3 333 .752941176470588 .752
941176470588 .752941176470588 81 1 305 682 300 208 0 220 315 303 336 83 3 335 .7
52941176470588 .752941176470588 .752941176470588 80 1 300 337 338 9000 1 1 1 1 1
 1 1 1 0 FFFFTFTFFFFFFF1 82 255 1 336 -159645396 79 255 14 338 SWEntUnchanged81
 1 310 674 300 33 0 201 307 331 339 82 1 334 -160038612 81 1 201 706 289 33 310
 0 0 291 340 82 1 339 -160366292 83 3 340 .752941176470588 .752941176470588 .752
941176470588 82 1 332 -159907540 82 1 329 -158531284 82 1 327 -159252180 82 1 32
3 -158990036 50 36 287 0 216 218 25 0 +-.0544160176770428 .0231635408634666 -.00
1 .920107179747133 -.3916666666666665 0 .3916666666666665 .920107179747133 0 82
 1 319 -159776468 82 1 314 -158727892 82 1 311 -160562900 81 1 290 689 300 198 0
 288 303 293 341 82 1 306 -181141204 81 1 293 691 300 202 0 291 290 297 342 82 1
 341 -160825044 82 1 342 -161087188 82 1 302 -142540500 79 15 299 SDL/TYSA_COLOU
R83 3 294 .752941176470588 .752941176470588 .752941176470588 83 3 292 .752941176
470588 .752941176470588 .752941176470588 17 271 0 268 343 61 62 240 238 0 0 -17
 272 0 268 61 343 68 234 228 0 0 -17 273 0 221 105 274 68 61 223 0 272 -17 274 0
 221 273 157 59 96 251 0 240 -15 221 256 0 105 208 0 17 157 0 221 274 105 94 344
 153 0 0 +17 96 0 209 345 240 94 274 251 0 169 +17 240 0 209 96 64 59 271 238 0
 0 +15 209 250 0 96 204 0 17 64 0 209 240 345 62 99 253 0 237 -17 345 0 209 64 9
6 97 169 167 0 166 -17 99 0 212 346 237 97 64 253 0 345 +17 237 0 212 99 67 62 3
43 235 0 271 +15 212 252 0 99 207 0 17 67 0 212 237 346 65 102 255 0 343 -17 343
 0 268 272 271 65 237 235 0 234 -17 234 0 217 102 70 65 272 228 0 0 +15 217 254
 0 102 213 0 17 102 0 217 347 234 100 67 255 0 346 +17 70 0 217 234 347 68 105 2
57 0 273 -17 347 0 217 70 102 103 163 158 0 344 -17 105 0 221 157 273 103 70 257
 0 347 +17 163 0 141 166 344 100 347 158 0 0 +17 344 0 141 163 169 103 157 153 0
 0 -15 141 502 0 344 140 282 17 169 0 141 344 166 94 345 167 0 157 +17 166 0 141
 169 163 97 346 164 0 0 +17 346 0 212 67 99 100 166 164 0 163 -19 34 290 0 12 0
 28 24 S0 74 4 CI16 index_map_offset0 0 1 dCCZ20 32 3 0 0 326 296 21 0 0 0 0 0 0
 0 0 0 0 0 0 0 0 0 0 0 80 1 5 348 349 8017 0 0 0 0 0 0 0 0 0 TTTTTTTTTTTTTF3 84
 255 8 31 tail-new79 13 349 SDL/TYSA_NAME81 1 10 251 5 7 0 0 0 0 350 70 11 0 4 T
7 0 0 3 20 1 351 351 13 13 94 0 7 0 352 0 0 353 0 51 255 14 93 0 354 355 0 0 --.
01 0 .001 0 0 -1 .002 -1 0 0 30 15 89 0 18 356 0 0 +-.01 -.002 .001 0 0 -1 29 16
 70 0 357 358 0 -.01 .002 0 19 17 28 0 7 353 0 359 V0 16 18 77 0 ?360 0 361 15 0
 0 7 18 19 25 0 362 0 363 364 ?7 17 362 0 365 366 367 19 368 369 0 370 +18 363 2
2 0 367 19 371 372 ?7 29 364 27 0 19 372 373 -.01 .002 .001 29 372 24 0 363 374
 364 .01 .002 .001 29 373 73 0 375 364 376 -.01 -.002 0 18 375 64 0 377 378 0 37
3 ?7 29 376 72 0 378 373 358 .01 -.002 0 18 378 63 0 379 380 375 376 ?7 29 358 7
1 0 380 376 16 .01 .002 0 18 380 62 0 381 357 378 358 ?7 17 381 0 382 383 384 38
0 385 386 0 387 +18 357 61 0 388 389 380 16 ?7 17 388 0 390 370 387 357 391 392
 0 393 +18 389 16 0 394 371 357 395 ?7 17 394 0 396 360 397 389 398 399 0 366 -1
8 371 19 0 398 363 389 374 ?7 29 395 18 0 389 0 374 -.01 -.002 .001 29 374 21 0
 371 395 372 .01 -.002 .001 17 398 0 365 367 366 371 394 399 0 397 +15 365 3 0 3
66 352 400 17 367 0 365 362 398 363 401 402 0 383 +17 366 0 365 398 362 389 403
 404 0 405 +16 399 7 0 ?398 402 404 406 0 0 7 17 397 0 396 394 379 371 384 361 0
 401 -15 396 82 0 379 407 0 17 379 0 396 397 360 378 377 408 0 384 +17 384 0 382
 381 401 378 397 361 0 385 +16 361 76 0 ?384 18 409 356 0 0 7 17 401 0 382 384 3
83 371 367 402 0 0 -15 382 80 0 381 410 0 17 383 0 382 401 381 363 387 409 0 368
 -16 402 10 0 ?367 369 399 411 0 0 7 16 369 13 0 ?362 412 402 413 0 0 7 31 255 4
11 11 0 402 406 413 0 +.01 0 .001 0 0 1 1 0 0 .002 30 406 8 0 399 414 411 0 +-.0
1 -.002 .001 1 0 0 30 413 14 0 369 411 415 0 +-.01 .002 .001 -1 0 0 31 415 69 0
 416 413 417 0 +-.01 0 0 0 0 1 1 0 0 .002 16 416 57 0 ?418 408 419 415 0 0 7 30
 417 68 0 408 415 420 0 +-.01 -.002 0 1 0 0 16 408 53 0 ?379 386 416 417 0 0 7 3
1 420 67 0 386 417 421 0 +.01 0 0 0 0 1 1 0 0 .002 16 386 49 0 ?381 392 408 420
 0 0 7 30 421 66 0 392 420 422 0 +-.01 .002 0 -1 0 0 16 392 45 0 ?388 404 386 42
1 0 0 7 30 422 86 0 412 421 423 0 +-.01 .002 .001 0 0 -1 16 412 74 0 ?393 409 36
9 422 0 0 7 30 423 87 0 409 422 356 0 +.01 .002 .001 0 0 -1 16 409 75 0 ?387 361
 412 423 0 0 7 30 356 88 0 361 423 15 0 +.01 -.002 .001 0 0 -1 17 387 0 390 388
 368 380 383 409 0 391 +15 390 78 0 388 424 0 17 368 0 390 387 370 363 362 369 0
 0 -17 391 0 425 385 426 380 388 392 0 0 -15 425 44 0 426 427 428 17 385 0 425 3
77 391 378 381 386 0 0 -17 426 0 425 391 377 357 418 416 0 0 -17 377 0 425 426 3
85 375 379 408 0 360 -17 418 0 429 405 393 375 426 416 0 0 +15 429 84 0 418 354
 0 17 405 0 429 403 418 389 360 18 0 0 -17 393 0 429 418 403 357 370 412 0 426 +
17 403 0 429 393 405 19 366 404 0 0 -17 370 0 390 368 388 19 393 412 0 403 -16 4
04 4 0 ?366 399 392 414 0 0 7 31 414 5 0 404 430 406 0 +-.01 0 .001 0 0 1 1 0 0
 .002 31 430 142 0 431 432 414 0 +-.01 0 0 0 0 1 1 0 0 .001 16 431 120 0 ?433 41
9 434 430 0 0 7 31 432 143 0 419 435 430 0 +-.01 0 .001 0 0 1 1 0 0 .001 16 419
 123 0 ?436 416 431 432 0 0 7 31 435 180 0 437 438 432 0 +.01 0 0 0 0 1 1 0 0 .0
01 16 437 158 0 ?439 434 0 435 0 0 7 31 438 181 0 434 0 435 0 +.01 0 .001 0 0 1
 1 0 0 .001 16 434 161 0 ?440 431 437 438 0 0 7 17 440 0 441 440 440 0 442 434 0
 0 +15 441 167 0 440 443 444 17 442 0 400 442 442 0 440 434 0 0 -15 400 152 0 44
2 352 0 14 352 155 445 ?427 0 446 13 447 +0 0 427 0 359 81 1 445 243 289 352 448
 0 0 449 450 14 427 149 449 ?354 352 425 13 451 -0 0 354 352 359 15 446 114 0 45
2 352 365 50 447 2 0 352 453 451 0 +-.01 0 .001 0 0 1 1 0 0 13 359 29 0 0 0 0 0
 0 17 352 51 453 139 0 454 455 447 0 --.01 0 .001 0 0 -1 .001 -1 0 0 50 451 65 0
 427 447 456 0 +-.01 0 0 0 0 1 1 0 0 50 456 90 0 424 451 457 0 +-.01 .002 .001 0
 -1 0 0 0 -1 14 424 79 458 ?454 410 390 13 456 -0 0 454 410 359 51 457 91 0 410
 456 355 0 -.01 0 .001 0 0 -1 .002 -1 0 0 14 410 81 459 ?424 407 382 13 457 -0 0
 424 407 359 50 355 92 0 407 457 14 0 +-.01 -.002 .001 0 1 0 0 0 1 14 407 83 460
 ?410 354 396 13 355 -0 0 410 354 359 81 1 460 246 289 407 461 0 462 459 463 14
 354 85 462 ?407 427 429 13 14 -0 0 407 427 359 81 1 462 245 289 354 464 0 449 4
60 465 81 1 464 237 300 354 0 462 461 466 467 81 1 449 244 289 427 468 0 445 462
 469 83 3 465 .752941176470588 .752941176470588 .752941176470588 81 1 468 229 30
0 427 0 449 448 470 471 83 3 469 .752941176470588 .752941176470588 .752941176470
588 81 1 448 227 300 352 0 445 0 468 472 81 1 470 231 300 424 0 458 468 473 474
 82 1 471 -377552595 81 1 458 248 289 424 470 0 459 475 476 81 1 473 233 300 410
 0 459 470 461 477 82 1 474 -390266579 81 1 459 247 289 410 473 0 460 458 478 81
 1 461 235 300 407 0 460 473 464 479 82 1 477 -390004435 82 1 479 -389742291 83
 3 478 .752941176470588 .752941176470588 .752941176470588 81 1 475 249 289 454 4
66 0 458 480 481 83 3 476 .752941176470588 .752941176470588 .752941176470588 14
 454 126 475 ?443 424 482 13 453 +0 0 443 424 359 81 1 466 239 300 454 0 475 464
 483 484 81 1 480 250 289 443 483 0 475 0 485 83 3 481 .752941176470588 .7529411
76470588 .752941176470588 14 443 164 480 ?0 454 441 13 455 +0 0 0 454 359 81 1 4
83 241 300 443 0 480 466 0 486 83 3 485 .752941176470588 .752941176470588 .75294
1176470588 82 1 486 -380567251 51 455 177 0 443 0 453 0 -.01 0 .001 0 0 -1 .001
 -1 0 0 82 1 484 -384630483 15 482 129 0 436 454 487 17 436 0 482 436 436 0 452
 419 0 0 +15 487 130 0 488 454 0 17 488 0 487 488 488 0 433 431 0 0 -17 433 0 42
8 433 433 0 488 431 0 0 +15 428 109 0 433 427 489 15 489 147 0 439 427 0 17 439
 0 489 439 439 0 490 437 0 0 +17 490 0 444 490 490 0 439 437 0 0 -15 444 168 0 4
90 443 0 17 452 0 446 452 452 0 436 419 0 0 -82 1 472 -377028307 82 1 467 -38948
0147 83 3 463 .752941176470588 .752941176470588 .752941176470588 83 3 450 .75294
1176470588 .752941176470588 .752941176470588 17 360 0 396 379 394 375 405 18 0 4
18 +19 353 95 0 7 0 17 13 S0 74 20 351 3 0 0 483 480 10 0 0 0 0 0 0 0 0 0 0 0 0
 0 0 0 0 0 84 4 350 Ò¡¸Ë74 20 6 1 0 0 2 0 0 0 0 0 0 0 0 0 0 0 0 0 0 0 0 0 0 0 1
 0 
